<svg width="16" height="17" viewBox="0 0 16 17" fill="none" xmlns="http://www.w3.org/2000/svg">
<path d="M11.6071 16.5578C12.3913 16.7679 13.1976 16.706 13.8777 16.3843C15.2819 15.72 15.7052 14.1401 14.8213 12.8628L7.8122 2.73349C7.24769 1.91682 6.36643 1.31469 5.33221 1.03757C4.29782 0.760412 3.2336 0.841249 2.33635 1.26625C1.43847 1.6909 0.814495 2.4079 0.579349 3.28547C0.344158 4.16321 0.525568 5.09598 1.09079 5.91227L6.60871 13.8853C6.7744 14.1247 7.12161 14.2177 7.38465 14.0933C7.64781 13.9688 7.72676 13.6742 7.5611 13.4347L2.04335 5.46171C1.63833 4.87653 1.50845 4.2081 1.67687 3.57955C1.84526 2.95111 2.29266 2.43697 2.93589 2.1326C3.57925 1.82834 4.34151 1.77027 5.08267 1.96887C5.82369 2.16742 6.4548 2.59884 6.85983 3.18402L13.8688 13.3133C14.4218 14.1131 14.1569 15.1018 13.2781 15.5179C12.426 15.9203 11.2168 15.5963 10.6801 14.8217L5.97365 8.01995C5.84567 7.83501 5.80291 7.61503 5.85605 7.4167C5.90993 7.2156 6.0534 7.05087 6.25999 6.95317C6.68488 6.75217 7.24944 6.9025 7.51666 7.28989L10.7309 11.9353C10.8964 12.1747 11.2438 12.2678 11.5069 12.1432C11.77 12.0188 11.849 11.7241 11.6833 11.4848L8.46916 6.83943C7.87125 5.97544 6.61129 5.63783 5.66044 6.08684C5.19933 6.3049 4.87906 6.67291 4.75855 7.12266C4.63964 7.56644 4.73546 8.0576 5.02114 8.47044L9.72758 15.2723C10.1558 15.891 10.8231 16.3477 11.6071 16.5578Z" fill="currentColor"/>
</svg>
