<?xml version="1.0" encoding="utf-8"?><svg viewBox="0 0 214 48" xmlns="http://www.w3.org/2000/svg" xmlns:xlink="http://www.w3.org/1999/xlink"><style>:root>svg{display:none}:root>svg:target{display:block}</style><svg fill="none" viewBox="0 0 11 7" id="Arrow" xmlns="http://www.w3.org/2000/svg"><path d="m1.5 1 4 4 4-4" stroke="currentColor" stroke-width="2"/></svg><svg fill="none" viewBox="0 0 16 16" id="Facebook" xmlns="http://www.w3.org/2000/svg"><g clip-path="url(#ba)"><path d="M16 8a8 8 0 1 0-9.25 7.903v-5.59H4.719V8H6.75V6.237c0-2.005 1.194-3.112 3.022-3.112.875 0 1.79.156 1.79.156V5.25h-1.008c-.994 0-1.304.617-1.304 1.25V8h2.219l-.355 2.313H9.25v5.59A8.002 8.002 0 0 0 16 8Z" fill="currentColor"/></g><defs><clipPath id="ba"><path fill="#fff" d="M0 0h16v16H0z"/></clipPath></defs></svg><svg fill="none" viewBox="0 0 15 15" id="Instagram" xmlns="http://www.w3.org/2000/svg"><path d="M15 7.5v3.249a4.202 4.202 0 0 1-2.724 3.896 5.62 5.62 0 0 1-2.115.353H4.524a4.495 4.495 0 0 1-2.564-.733 4.152 4.152 0 0 1-1.843-2.523A4.405 4.405 0 0 1 0 10.764V4.35c0-1.101.308-2.09 1.092-2.888A4.495 4.495 0 0 1 3.924.046C4.598-.014 5.273.003 5.934 0h4.306c.973 0 1.908.157 2.74.696a4.166 4.166 0 0 1 1.88 2.472c.087.353.131.715.133 1.079.016 1.083 0 2.166 0 3.25l.007.001Zm-13.876 0v3.28c0 1.27.674 2.13 1.753 2.72a3.482 3.482 0 0 0 1.694.37h5.806a3.738 3.738 0 0 0 1.919-.492c1.016-.589 1.573-1.456 1.573-2.636a460.4 460.4 0 0 0 0-6.575c0-1.297-.735-2.153-1.843-2.721a3.425 3.425 0 0 0-1.598-.328H4.655a3.779 3.779 0 0 0-1.78.393c-1.077.56-1.727 1.431-1.751 2.678-.027 1.104 0 2.207 0 3.31Z" fill="currentColor"/><path d="M1.124 7.5v3.28c0 1.27.674 2.13 1.753 2.72a3.482 3.482 0 0 0 1.694.37h5.806a3.738 3.738 0 0 0 1.919-.492c1.016-.589 1.573-1.456 1.573-2.636a460.4 460.4 0 0 0 0-6.575c0-1.297-.735-2.153-1.843-2.721a3.425 3.425 0 0 0-1.598-.328H4.655a3.779 3.779 0 0 0-1.78.393c-1.077.56-1.727 1.431-1.751 2.678-.027 1.104 0 2.207 0 3.31Z" fill="currentColor"/><path d="M7.506 10.704a3.477 3.477 0 1 1 3.529-3.47 3.51 3.51 0 0 1-3.529 3.47ZM5.108 7.226a2.404 2.404 0 1 0 2.405-2.36 2.396 2.396 0 0 0-2.405 2.36ZM12.184 3.459a.74.74 0 1 1-.735-.766.764.764 0 0 1 .735.766Z" fill="#fff"/></svg><svg fill="none" viewBox="0 0 214 48" id="Logo" xmlns="http://www.w3.org/2000/svg"><path d="M213.604 9.489c-.073.073-.183.184-.183.257-.182 2.317-1.203 4.156-2.844 5.738-.656.625-.693.625-.255 1.435a8.421 8.421 0 0 1 .984 4.965c-.291 2.465-1.458 4.487-3.463 5.995-1.35.994-2.845 1.656-4.485 1.656-15.314 0-30.629-.037-45.943-.074h-17.392c.182-.735.328-1.434.51-2.096 1.203-4.892 2.443-9.784 3.646-14.713.073-.331.219-.441.511-.405h4.375c.328 0 .438.037.328.442-.729 2.905-1.458 5.774-2.151 8.68-.219.846-.401 1.692-.62 2.538-.073.331 0 .442.329.405h.474c18.522 0 37.045 0 55.605.037.802 0 1.494-.11 2.114-.663.584-.514.985-1.14 1.131-1.949.364-2.133-.839-3.972-3.027-4.303-1.422-.221-2.807-.148-4.193-.148-13.6-.036-27.201 0-40.801 0h-.656c.182-.662.328-1.25.474-1.839.255-.956.474-1.912.729-2.869.073-.33.219-.441.547-.441.656.074 1.349.074 2.005.11l16.044.11c3.463.038 6.891.074 10.355.074 2.99.037 5.98.074 8.97.074 2.771.037 5.542.073 8.313.073.912 0 1.75-.294 2.443-.956.839-.81 1.13-1.802 1.057-2.98-.073-1.323-1.13-2.721-2.443-3.015-.364-.074-.765-.147-1.166-.147h-17.028a9825.361 9825.361 0 0 0-32.926-.074c-10.72-.037-21.44-.074-32.123-.074-.656 0-.656 0-.802.626-1.094 4.45-2.188 8.864-3.282 13.315l-2.406 9.71c-.037.147-.219.331-.365.331-1.568.037-3.136 0-4.74 0-.037 0-.109-.037-.219-.037.292-1.14.547-2.244.839-3.347 1.568-6.29 3.099-12.542 4.667-18.832a430.16 430.16 0 0 0 1.604-6.62c.073-.368.256-.442.62-.442h87.4c1.021 0 1.933.405 2.771.846 1.495.81 2.589 1.986 3.391 3.457.657 1.25 1.204 2.502 1.24 3.936 0 .074.073.147.11.22-.073.368-.073.663-.073.994ZM164.6 48c.219-1.103.474-2.207.693-3.347.036-.258.182-.368.437-.331.365.073.547-.11.693-.442 1.057-2.023 1.604-4.156 2.042-6.363.036-.257.109-.404.401-.404h5.287c.073 0 .109.037.219.037-.183.845-.365 1.728-.547 2.574-.292 1.435-.62 2.832-.912 4.267-.036.257 0 .368.292.368s.328.11.255.367a73.25 73.25 0 0 0-.583 2.759c-.037.184 0 .331 0 .515h-1.24c.146-.81.328-1.618.474-2.464h-5.87c-.146.846-.256 1.655-.401 2.464h-1.24Zm8.022-9.71c-.839 0-1.641.037-2.407 0-.365 0-.474.147-.583.478-.474 1.581-1.021 3.126-1.532 4.671-.109.294-.219.589-.328.92h3.573c.438-2.023.839-4.01 1.277-6.07Z" fill="#373334"/><path d="M97.726 29.388c1.969-7.981 3.938-15.963 5.907-23.981h-.766c-32.524 0-65.085 0-97.61.037-1.932 0-2.844-1.361-2.844-2.87.037-1.176.73-2.243 1.823-2.5.22-.037.438-.074.62-.074H110.415c-.256 1.103-.547 2.207-.803 3.274-.145.662-.255 1.36-.437 2.023-.328 1.36-.729 2.721-1.094 4.082-.839 3.31-1.677 6.62-2.479 9.931-.803 3.237-1.568 6.51-2.37 9.747-.037.11-.183.295-.292.295-1.714.036-3.464.036-5.214.036Z" fill="#9F0023"/><path d="M36.106 29.572H5.222c-1.24 0-2.224-.699-2.589-1.876-.328-.993.11-2.096 1.094-2.795.51-.368 1.094-.442 1.678-.442H66.77c1.458 0 2.844-1.324 3.062-2.758.183-1.324-.109-2.428-1.093-3.347-.584-.515-1.24-.846-2.042-.846H33.663c-1.094 0-1.896-.441-2.37-1.471-.51-1.067-.292-2.06.474-2.87.474-.514 1.057-.809 1.823-.809h32.67c4.193 0 7.73 2.98 8.496 7.063.51 2.684-.219 5.075-1.97 7.135-1.421 1.692-3.244 2.612-5.396 2.98-.182.036-.364 0-.51 0-10.282.036-20.528.036-30.774.036ZM151.181 45.498h-2.006c-.291 0-.401-.073-.328-.404l1.641-7.724c.037-.11.255-.295.365-.295 1.276 0 2.589 0 3.865.074.911.037 1.531.625 1.75 1.508.182.736-.182 1.618-.875 1.986-.11.074-.255.11-.401.22-.219.148-.255.258 0 .442.328.258.656.515.838.846.438.736.11 1.435-.291 2.097-.438.735-1.204 1.03-2.006 1.14-.875.11-1.75.11-2.589.147.037 0 .037 0 .037-.037Zm.911-1.177h1.094c.657-.036 1.167-.257 1.459-.882.292-.7 0-1.435-.766-1.545-.875-.11-1.787-.074-2.698-.074-.073 0-.182.147-.182.22-.146.626-.292 1.288-.438 1.913-.036.221.037.368.292.368h1.239Zm-.765-3.641a57.609 57.609 0 0 0 2.771-.147c.62-.074.984-.699.911-1.398-.072-.552-.437-.846-1.13-.846h-1.385c-.657 0-.693 0-.803.662-.145.515-.218 1.067-.364 1.729ZM74.536 45.499h-2.042c-.292 0-.365-.11-.292-.368l1.64-7.724c.037-.147.256-.294.365-.294 1.277 0 2.59 0 3.866.073.984.074 1.64.736 1.786 1.655.11.589-.291 1.619-1.13 1.95-.146.037-.219.184-.328.294.11.11.182.22.291.294.912.589 1.094 1.398.693 2.391-.437 1.03-1.276 1.508-2.297 1.618-.839.11-1.714.11-2.552.148v-.037Zm-.62-1.177c1.02 0 1.932.037 2.807 0 .584 0 1.058-.331 1.277-.883.291-.699 0-1.434-.73-1.545-.656-.11-1.312-.073-2.005-.073-.839 0-.875 0-1.058.846-.072.515-.182 1.066-.291 1.655Zm2.552-6.032c-.328 0-.656-.037-.948 0-.146.037-.328.184-.364.294-.146.515-.256 1.067-.365 1.618-.073.258 0 .405.328.405.584 0 1.203.037 1.787 0 .328-.037.656-.11.948-.258.437-.22.656-.845.547-1.36-.11-.442-.474-.7-1.021-.7h-.912ZM194.644 37.113c-.365 1.765-.73 3.494-1.094 5.223.036.036.073.073.146.073.218-.184.437-.33.619-.551.948-1.14 1.896-2.281 2.881-3.384.219-.258.401-.479.62-.736.291-.405.62-.699 1.167-.588.218.036.474 0 .765 0-.146.698-.291 1.324-.401 1.986-.437 2.06-.875 4.082-1.312 6.142-.037.11-.219.294-.329.294-1.385 0-1.203.221-.911-1.066.255-1.288.547-2.575.838-3.862.037-.11-.036-.258-.072-.368-.11.073-.219.073-.292.184-1.276 1.508-2.553 3.053-3.829 4.56-.437.516-1.13.773-1.713.59-.073-.038-.183-.221-.146-.332.255-1.25.547-2.501.802-3.752.292-1.324.547-2.611.839-3.935.072-.294.182-.405.474-.368.218-.11.546-.11.948-.11ZM160.623 37.113c-.365 1.765-.73 3.494-1.094 5.186.036.037.073.073.146.073.218-.184.437-.33.62-.551.948-1.14 1.896-2.28 2.88-3.384.219-.258.438-.515.62-.773.292-.367.62-.662 1.13-.588.256.037.474 0 .802 0-.182.846-.328 1.655-.51 2.427-.401 1.876-.802 3.789-1.203 5.665-.037.257-.146.294-.365.294-1.313-.037-1.167.184-.875-1.104a144 144 0 0 1 .839-3.861c.036-.11-.037-.258-.037-.368-.109.036-.219.073-.292.184-1.276 1.508-2.588 3.052-3.828 4.56-.438.515-1.094.773-1.714.589-.073-.037-.182-.22-.146-.331.401-1.913.803-3.825 1.24-5.738.146-.625.292-1.287.401-1.913.037-.294.182-.404.474-.404.182.037.511.037.912.037ZM104.908 40.534c-.073 1.986-1.203 4.156-3.209 4.892-1.64.588-3.39.22-4.338-1.288-.511-.846-.657-1.802-.438-2.795.219-.993.51-1.913 1.13-2.722.62-.81 1.422-1.324 2.407-1.582.948-.257 1.896-.184 2.807.331 1.058.626 1.678 1.913 1.641 3.164Zm-6.563 1.618c0 .883.255 1.655 1.094 2.06.875.404 1.714.294 2.443-.295.802-.588 1.167-1.47 1.385-2.427.183-.736.183-1.508-.146-2.244-.583-1.324-2.588-1.434-3.61-.33-.801.919-1.166 2.022-1.166 3.236ZM39.24 40.606c-.183 1.84-.839 3.494-2.553 4.524-1.713.993-3.901.81-4.995-.956-.547-.883-.656-1.876-.437-2.869.218-.956.51-1.876 1.13-2.685a4.18 4.18 0 0 1 2.406-1.545c.948-.257 1.896-.184 2.772.331 1.203.662 1.604 1.803 1.677 3.2Zm-1.532-.037v-.183c0-.994-.437-1.73-1.166-2.023a2.495 2.495 0 0 0-2.699.588c-.838.92-1.203 2.06-1.203 3.347.037.81.255 1.508 1.021 1.876.802.405 1.568.368 2.297-.11 1.276-.846 1.641-2.097 1.75-3.495ZM71.327 40.606c-.183 1.84-.839 3.494-2.553 4.524-1.713.993-3.901.81-4.995-.956-.547-.883-.656-1.876-.438-2.869.22-.956.511-1.876 1.13-2.685a4.18 4.18 0 0 1 2.407-1.545c.948-.257 1.896-.184 2.772.331 1.203.662 1.64 1.803 1.677 3.2Zm-6.564 1.508c0 .92.256 1.545.766 1.913.912.625 2.115.552 2.917-.22.985-.957 1.386-2.134 1.35-3.458 0-.956-.475-1.692-1.204-1.95-1.094-.441-2.115 0-2.662.589-.802.846-1.167 1.95-1.167 3.126ZM7.265 44.432c1.057-.074 1.24-.22 1.458-1.25.401-1.876.803-3.789 1.24-5.665.037-.147.219-.405.328-.405 1.75-.036 3.537 0 5.36 0-.182.846-.328 1.619-.51 2.428-.401 1.876-.802 3.789-1.204 5.664-.072.258-.145.331-.4.331h-.84c-.29 0-.327-.11-.29-.367l1.312-6.18c.146-.588.073-.662-.51-.662h-1.496c-.328 0-.474.074-.547.442a124.004 124.004 0 0 1-1.203 5.296c-.328 1.177-1.057 1.692-2.115 1.655a1.69 1.69 0 0 1-.62-.11c-.072-.037-.182-.22-.182-.294.073-.331.182-.589.219-.883ZM140.424 37.113c-.219.993-.401 1.95-.583 2.905-.365 1.73-.766 3.458-1.131 5.187-.036.257-.145.294-.364.294h-.839c-.292 0-.364-.11-.292-.368l1.313-6.18c.146-.624.109-.661-.547-.661h-1.495c-.328 0-.437.11-.51.441-.401 1.802-.73 3.605-1.24 5.333-.365 1.398-1.313 1.84-2.735 1.545-.073-.037-.146-.073-.255-.11.073-.331.182-.699.255-1.03 1.094-.11 1.313-.294 1.532-1.471.401-1.84.765-3.715 1.167-5.554.036-.147.218-.331.364-.331h5.36ZM186.074 37.112c-.219 1.14-.437 2.17-.693 3.31.146.037.292.037.401.037h2.771c.292 0 .438-.11.475-.367.182-.883.364-1.73.546-2.612.037-.258.146-.405.438-.368h1.167c-.183.846-.328 1.618-.511 2.428-.401 1.876-.802 3.788-1.203 5.664-.036.258-.146.331-.401.331h-.839c-.291 0-.364-.11-.291-.368.218-.993.437-1.95.619-2.942.11-.478.037-.552-.401-.552h-2.588c-.329 0-.474.074-.547.405-.219 1.066-.474 2.096-.657 3.163-.036.257-.146.33-.364.294h-.401c-1.021 0-.839 0-.657-.81.474-2.39 1.021-4.78 1.532-7.172.073-.33.182-.44.51-.44h1.094ZM176.519 44.358h4.813a6.59 6.59 0 0 1-.255.994c-.037.11-.219.184-.328.184h-5.579c-.292 0-.365-.11-.292-.405.547-2.575 1.094-5.113 1.641-7.687.037-.148.255-.332.365-.332 1.75-.036 3.537 0 5.287 0 .255 0 .328.037.255.332-.255 1.03-.109.845-1.021.845h-3.136c-.328 0-.474.11-.51.442-.073.588-.219 1.177-.365 1.802.219 0 .401.037.584.037h3.245c.547 0 .547 0 .401.552v.036c-.037.479-.292.626-.802.626-1.094-.037-2.188 0-3.282 0-.292 0-.437.073-.51.404-.183.662-.365 1.361-.511 2.17ZM126.934 40.533c.256 0 .401.037.584.037h3.354c.292 0 .401.037.292.368-.255.883-.037.81-1.021.81-1.021 0-2.005.036-3.026 0-.401 0-.547.146-.62.477-.11.7-.255 1.361-.401 2.097.255 0 .401.036.583.036h3.719c.365 0 .511.037.365.479-.255.772-.037.735-.912.735h-5.104c-.329 0-.438-.073-.365-.441.547-2.538 1.094-5.076 1.641-7.65.036-.11.219-.295.328-.295h5.469c.037 0 .073.037.183.074-.073.294-.11.625-.219.92-.037.11-.292.183-.438.183-1.167 0-2.297.037-3.464 0-.401 0-.583.074-.656.552 0 .441-.146.993-.292 1.618ZM113.405 37.186c-.073.331-.109.662-.255.92-.036.11-.292.183-.438.183-1.166 0-2.297.037-3.463 0-.402 0-.584.074-.62.515a5.775 5.775 0 0 1-.292 1.325c-.109.367.036.44.365.44H112.603a6.587 6.587 0 0 1-.255.994c-.037.11-.292.184-.438.184h-3.464c-.328 0-.51.074-.583.441-.109.589-.255 1.177-.365 1.803-.073.33.11.404.401.404H112.238a6.359 6.359 0 0 1-.255.993c-.036.11-.219.184-.328.184h-5.652c-.291 0-.328-.147-.255-.404.438-2.06.912-4.157 1.349-6.216.11-.479.183-.994.292-1.435.036-.147.219-.331.365-.331 1.786-.037 3.573 0 5.36 0 .109-.074.182-.037.291 0ZM142.575 44.322h4.412c.255 0 .401.037.291.368-.255.92-.036.809-1.021.809h-4.995c-.401 0-.51-.074-.401-.515.547-2.538 1.057-5.076 1.604-7.577.037-.11.219-.294.328-.294h5.47c.036 0 .073.037.182.073a9.395 9.395 0 0 1-.255.957c-.037.11-.255.147-.401.147-1.167 0-2.297.037-3.464 0-.401 0-.583.073-.656.551-.073.552-.219 1.104-.365 1.692.255 0 .401.037.583.037h3.355c.292 0 .401.037.292.368-.256.883-.037.81-1.021.81-1.021 0-2.006.036-3.027 0-.401 0-.547.146-.62.477 0 .662-.145 1.361-.291 2.097ZM207.805 37.186c-.073.295-.11.626-.219.846-.073.11-.292.221-.438.221-1.167.037-2.37.037-3.537 0-.328 0-.51.074-.547.441-.073.479-.182.957-.291 1.398-.037.11-.037.22-.037.405H206.638c.291 0 .401.036.291.367-.255.883-.036.81-1.021.81h-3.062c-.292 0-.474.073-.547.404-.11.626-.256 1.214-.401 1.84-.037.11 0 .183.036.33.182 0 .401.037.583.037h3.72c.328 0 .51.074.328.405-.037.11-.073.257-.11.368-.036.294-.182.404-.474.404h-5.505c-.329 0-.401-.073-.329-.404.547-2.538 1.094-5.076 1.641-7.65.037-.148.219-.332.328-.332 1.823-.037 3.647 0 5.47 0 .073.037.109.074.219.11ZM21.482 43.586h-3.318c-.11 0-.255.11-.328.221-.292.478-.51.956-.802 1.398-.073.147-.292.257-.474.294-.365.037-.73 0-1.204 0 .51-.92.949-1.802 1.423-2.648.546-1.03 1.13-2.06 1.713-3.09.438-.81.875-1.618 1.35-2.39a.555.555 0 0 1 .4-.221c.438-.037.839 0 1.277 0 .218 0 .328.036.364.294.365 2.39.766 4.781 1.13 7.172.037.294.073.589.146.92-.4 0-.802.036-1.166-.037-.146-.037-.292-.258-.329-.405-.073-.478-.109-.956-.182-1.508Zm-2.735-1.177h1.97c.546 0 .62-.11.546-.662l-.437-2.758c0-.074-.073-.147-.11-.258-.073.074-.182.11-.218.184-.547.993-1.094 1.986-1.605 2.98-.11.146-.11.294-.146.514ZM95.027 45.498h-1.313c-.11 0-.219-.147-.255-.257-.255-.846-.474-1.692-.73-2.501-.109-.405-.218-.773-.692-.957-.401-.147-.584-.073-.693.368-.219 1.03-.474 2.023-.656 3.053-.037.294-.183.331-.401.331h-.401c-.803 0-.803 0-.62-.809.51-2.39 1.02-4.818 1.531-7.21.037-.257.146-.404.438-.367H92.4a39.573 39.573 0 0 0-.364 1.802c-.11.442-.183.883-.292 1.324-.073.405.073.589.474.442.292-.11.584-.294.766-.515.474-.699.911-1.435 1.385-2.133.547-.773 1.313-1.03 2.298-.92-.11.331-.183.625-.292.883-.037.073-.219.184-.328.147-.474-.037-.693.22-.912.588a15.727 15.727 0 0 1-1.094 1.619c-.182.257-.51.441-.802.588-.219.11-.255.22-.073.331.766.368 1.021 1.067 1.203 1.84.22.772.438 1.544.657 2.353ZM55.431 39.43c-.51.037-.948.11-1.422.147-.036-.074-.11-.11-.146-.184-.182-1.14-1.385-1.324-2.26-1.104-.912.221-1.459.846-1.823 1.692-.401.957-.584 1.913-.365 2.943.146.772.583 1.36 1.386 1.508.875.147 1.64-.11 2.187-.883.183-.22.292-.515.474-.809.438.074.912.147 1.386.22-.766 2.245-3.209 3.385-5.25 2.465-.949-.441-1.496-1.25-1.678-2.28-.292-1.582.036-3.053.912-4.377 1.02-1.545 3.245-2.244 4.922-1.508.948.367 1.495 1.103 1.677 2.17ZM88.464 39.43c-.438.037-.875.11-1.313.147-.073 0-.182-.11-.182-.184-.146-.589-.438-.956-1.021-1.104-.656-.147-1.24-.11-1.86.221-1.02.552-1.349 1.545-1.568 2.575-.109.588-.109 1.25 0 1.876.11.772.584 1.324 1.35 1.471.838.184 1.604-.11 2.15-.81.183-.22.292-.514.475-.845.437.073.911.147 1.385.22-.729 2.244-3.281 3.421-5.25 2.465-.912-.442-1.459-1.25-1.641-2.244-.292-1.581.036-3.053.911-4.377 1.021-1.545 3.21-2.244 4.923-1.508.875.22 1.568 1.177 1.64 2.097ZM1.21 38.84c.402-1.03 1.167-1.544 2.079-1.802.948-.257 1.86-.073 2.698.442 1.276.772 1.313 2.464.073 3.31-.182.11-.328.22-.51.294-.329.147-.292.294-.037.442 1.459.882 1.094 2.648-.11 3.457-1.421.92-2.953.993-4.448.184-.4-.22-.656-.736-.948-1.14-.036-.037.073-.258.146-.294.328-.148.693-.221 1.021-.295.073 0 .255.11.328.221.547.883 2.188 1.103 2.99.405.401-.368.547-.92.401-1.398-.182-.589-.656-.736-1.203-.81-.146-.036-.328 0-.547 0 .073-.404.146-.735.219-1.103.036-.073.219-.147.328-.184.292-.073.656-.036.948-.147.62-.22.875-.735.802-1.397-.036-.405-.401-.773-.911-.81-.693-.073-1.422-.036-1.824.7-.036.073-.182.146-.291.146-.328-.036-.73-.147-1.204-.22ZM39.677 45.572c0-.11.036-.22.036-.294.037-.736.037-.772.766-.736.766.037 1.714-.993 1.422-1.876-.51-1.618-.948-3.31-1.422-4.965a4.601 4.601 0 0 0-.146-.589c.474 0 .875-.036 1.276 0 .11 0 .292.184.292.295.292 1.25.547 2.464.802 3.715.037.184.146.33.255.478.146-.11.328-.184.438-.331.911-1.288 1.823-2.575 2.735-3.825.109-.148.364-.258.547-.295.364-.037.765 0 1.166 0 0 .074 0 .147-.036.184-1.896 2.501-3.756 5.04-5.652 7.54-.583.81-1.458.994-2.48.7ZM57.47 45.499c.51-2.428 1.02-4.782 1.494-7.21h-2.516c.073-.404.146-.735.219-1.03.036-.073.182-.146.255-.146h6.272c-.073.367-.11.662-.219.956-.037.11-.255.22-.401.22-.693.038-1.386 0-2.115 0-.401 1.913-.802 3.752-1.167 5.628-.11.442-.145.883-.291 1.324-.037.11-.22.258-.329.258-.328.037-.729 0-1.203 0ZM120.404 38.29h-2.516c.073-.368.146-.7.219-1.03 0-.074.146-.147.218-.147h6.308c-.072.367-.109.662-.218.956-.037.11-.256.22-.401.22-.693.038-1.386 0-2.115 0-.474 2.318-.985 4.562-1.422 6.842-.073.294-.146.405-.438.405h-1.167c.547-2.428 1.021-4.782 1.532-7.246ZM31.108 37.186c-.073.257-.11.588-.182.883-.036.11-.219.183-.365.183-.547.037-1.094 0-1.677 0-.146 0-.328 0-.474.037-.474 2.28-.985 4.561-1.422 6.805-.073.294-.146.404-.438.404h-1.13c.182-.882.365-1.728.547-2.574.292-1.435.62-2.833.912-4.267.072-.257-.037-.405-.329-.405H24.4c.072-.367.109-.662.218-.993.036-.073.182-.184.292-.184h6.162c-.037.037-.037.074.036.11Z" fill="#373334"/></svg><svg fill="none" viewBox="0 0 16 16" id="Ok" xmlns="http://www.w3.org/2000/svg"><g clip-path="url(#ea)"><circle cx="8" cy="8" r="8" fill="currentColor"/><path d="m9.77 12.659-.46.131a4.887 4.887 0 0 1-2.889.352.823.823 0 0 1-.477-.237.877.877 0 0 1-.175-.788.8.8 0 0 1 .854-.628c.255 0 .499.041.754.04a4.422 4.422 0 0 0 1.601-.388A4.611 4.611 0 0 0 10.9 9.642c.162-.235.303-.484.422-.744.104-.236.278-.435.5-.568a.8.8 0 0 1 .877.066.772.772 0 0 1 .272 1.061 4.53 4.53 0 0 1-.726 1.334c-.315.381-.671.726-1.062 1.028l-.274.158.14.053 3.342.898a.792.792 0 0 1 .629.71.897.897 0 0 1-.42.875.726.726 0 0 1-.572.063l-2.404-.623-.266-.103c-.078-.028-.114-.007-.137.08l-.358 1.34c-.123.46-.237.917-.412 1.395a.758.758 0 0 1-.912.527.908.908 0 0 1-.51-.291.74.74 0 0 1-.158-.676l.481-1.802.397-1.63.02-.134Z" fill="#F2F2F2"/><path d="M5.527 4.005a3.443 3.443 0 0 1 3.832.248 3.456 3.456 0 0 1 .166 5.342 3.442 3.442 0 0 1-3.81.476 3.455 3.455 0 0 1-1.454-1.386 3.443 3.443 0 0 1-.331-2.602 3.433 3.433 0 0 1 1.597-2.078Zm.236 3.825a1.712 1.712 0 0 0 1.69.862 1.705 1.705 0 0 0 1.425-2.22 1.712 1.712 0 0 0-2.453-.974 1.705 1.705 0 0 0-.662 2.332Z" fill="#F2F2F2"/></g><defs><clipPath id="ea"><path fill="#fff" d="M0 0h16v16H0z"/></clipPath></defs></svg><svg fill="none" viewBox="0 0 18 18" id="Search" xmlns="http://www.w3.org/2000/svg"><path d="M13.21 11.619a7.264 7.264 0 0 0 1.415-4.306C14.625 3.28 11.345 0 7.312 0 3.28 0 0 3.28 0 7.313c0 4.032 3.28 7.312 7.312 7.312 1.611 0 3.097-.53 4.307-1.416L16.409 18 18 16.41l-4.79-4.791Zm-5.898.756A5.068 5.068 0 0 1 2.25 7.313 5.068 5.068 0 0 1 7.312 2.25a5.068 5.068 0 0 1 5.063 5.063 5.068 5.068 0 0 1-5.063 5.062Z" fill="currentColor"/></svg><svg fill="none" viewBox="0 0 19 18" id="Vk" xmlns="http://www.w3.org/2000/svg"><path d="M10.696 6.79c0 .455-.018.884-.02 1.308-.007.231.02.462.08.686a.69.69 0 0 0 .232.364.226.226 0 0 0 .202.039.855.855 0 0 0 .328-.194 4.4 4.4 0 0 0 .605-.683 12.922 12.922 0 0 0 1.542-2.801c.07-.167.139-.332.205-.503a.56.56 0 0 1 .262-.303.645.645 0 0 1 .24-.04h3.268c.09.012.178.036.262.071a.318.318 0 0 1 .229.317c0 .18-.036.358-.105.523-.176.425-.398.83-.662 1.207-.492.749-1.051 1.448-1.577 2.163-.176.238-.341.484-.499.733a.719.719 0 0 0-.12.468c.022.16.096.31.21.424.191.204.386.406.59.597a16.284 16.284 0 0 1 1.543 1.57c.223.265.415.554.573.862a.952.952 0 0 1 .078.262.475.475 0 0 1-.228.523c-.176.11-.378.172-.586.176-.775.02-1.55.015-2.322.06a1.946 1.946 0 0 1-1.361-.466 6.318 6.318 0 0 1-.788-.77c-.263-.285-.507-.573-.789-.845a1.787 1.787 0 0 0-.401-.296.466.466 0 0 0-.597.094c-.13.156-.22.341-.265.54a3.818 3.818 0 0 0-.14.926 2.33 2.33 0 0 1-.023.233.536.536 0 0 1-.368.432c-.127.053-.264.08-.402.081h-1.05a5.147 5.147 0 0 1-1.79-.343 6.874 6.874 0 0 1-2.69-1.832 16.757 16.757 0 0 1-1.944-2.597A36.726 36.726 0 0 1 .054 5.292a.64.64 0 0 1-.05-.325.227.227 0 0 1 .134-.194c.13-.065.272-.099.417-.099h2.612a.803.803 0 0 1 .699.524c.225.594.497 1.17.811 1.722.341.615.725 1.205 1.148 1.767.144.208.322.39.526.54a.424.424 0 0 0 .473.046.44.44 0 0 0 .181-.209c.095-.218.154-.451.173-.688.058-.554.07-1.11.035-1.665a5.904 5.904 0 0 0-.103-.987c-.016-.081-.045-.16-.06-.241a.536.536 0 0 0-.284-.35 1.34 1.34 0 0 0-.596-.197c-.06 0-.082-.032-.056-.084a.575.575 0 0 1 .09-.144c.192-.208.451-.343.733-.38.407-.07.82-.1 1.234-.091.46 0 .923 0 1.385.029.2.012.4.045.594.096a.7.7 0 0 1 .562.66c.022.253.03.506.024.76-.006.342-.027.688-.04 1.007Z" fill="currentColor"/></svg><svg fill="none" viewBox="0 0 15 16" id="YouTube" xmlns="http://www.w3.org/2000/svg"><path d="M14.85 4.8s-.146-1.103-.597-1.587c-.571-.638-1.21-.641-1.503-.679-2.098-.162-5.247-.162-5.247-.162h-.006s-3.15 0-5.247.162c-.293.038-.932.041-1.503.679C.296 3.697.152 4.8.152 4.8S0 6.097 0 7.39v1.213c0 1.294.15 2.59.15 2.59s.146 1.104.594 1.588c.571.638 1.321.616 1.655.685 1.202.122 5.101.159 5.101.159s3.152-.006 5.25-.166c.293-.037.932-.04 1.503-.678.451-.484.598-1.587.598-1.587S15 9.9 15 8.604V7.39c0-1.294-.15-2.591-.15-2.591Zm-8.9 5.275V5.578l4.052 2.256-4.052 2.241Z" fill="currentColor"/></svg></svg>