<?xml version="1.0" encoding="utf-8"?><svg viewBox="0 0 544 122" xmlns="http://www.w3.org/2000/svg" xmlns:xlink="http://www.w3.org/1999/xlink"><style>:root>svg{display:none}:root>svg:target{display:block}</style><svg fill="none" viewBox="0 0 11 7" id="Arrow" xmlns="http://www.w3.org/2000/svg"><path d="m1.5 1 4 4 4-4" stroke="currentColor" stroke-width="2"/></svg><svg fill="none" viewBox="0 0 544 122" id="Banner" xmlns="http://www.w3.org/2000/svg"><g opacity=".1"><path d="M543.344 24.118c-.185.187-.463.467-.463.654-.463 5.89-3.058 10.564-7.229 14.584-1.668 1.59-1.76 1.59-.648 3.646 2.131 3.926 2.965 8.227 2.502 12.62-.741 6.264-3.707 11.406-8.804 15.239-3.429 2.524-7.229 4.207-11.399 4.207-38.924 0-77.847-.094-116.771-.187H356.326c.463-1.87.834-3.646 1.297-5.329 3.059-12.434 6.21-24.867 9.268-37.394.185-.842.556-1.122 1.297-1.029h11.121c.834 0 1.113.094.834 1.122-1.853 7.386-3.707 14.677-5.467 22.063-.556 2.15-1.02 4.3-1.576 6.45-.185.842 0 1.122.834 1.029h1.205c47.079 0 94.158 0 141.33.093 2.039 0 3.799-.28 5.375-1.683 1.483-1.308 2.502-2.898 2.873-4.954.927-5.422-2.132-10.097-7.692-10.938-3.615-.561-7.136-.374-10.658-.374-34.568-.094-69.136 0-103.703 0h-1.669c.464-1.683.834-3.179 1.205-4.674.649-2.431 1.205-4.862 1.854-7.292.185-.842.556-1.122 1.39-1.122 1.668.187 3.429.187 5.097.28l40.777.28c8.804.094 17.516.188 26.32.188 7.599.093 15.198.187 22.798.187 7.043.093 14.086.187 21.13.187 2.317 0 4.448-.748 6.209-2.431 2.132-2.057 2.873-4.58 2.688-7.572-.186-3.366-2.873-6.918-6.21-7.666-.926-.187-1.946-.374-2.965-.374h-43.28c-27.895-.094-55.79-.187-83.685-.187-27.247-.094-54.493-.187-81.647-.187-1.668 0-1.668 0-2.039 1.59-2.78 11.31-5.56 22.53-8.341 33.841l-6.116 24.68c-.093.374-.556.842-.927.842-3.985.093-7.97 0-12.048 0-.092 0-.278-.094-.556-.094.742-2.898 1.39-5.702 2.132-8.507 3.985-15.986 7.877-31.879 11.862-47.865 1.39-5.609 2.78-11.218 4.078-16.827.185-.935.649-1.122 1.575-1.122h222.143c2.595 0 4.912 1.028 7.043 2.15 3.8 2.057 6.58 5.048 8.619 8.788 1.668 3.178 3.058 6.357 3.151 10.003 0 .187.185.374.278.56-.186.936-.186 1.683-.186 2.525ZM418.793 122c.556-2.805 1.205-5.609 1.761-8.507.092-.655.463-.935 1.112-.842.927.187 1.39-.28 1.761-1.121 2.687-5.142 4.077-10.564 5.19-16.174.092-.654.278-1.028 1.019-1.028h13.438c.185 0 .278.094.556.094-.463 2.15-.927 4.394-1.39 6.544-.742 3.646-1.576 7.198-2.317 10.844-.093.654 0 .935.741.935.742 0 .834.28.649.935-.556 2.337-1.019 4.674-1.483 7.011-.092.468 0 .842 0 1.309h-3.151c.371-2.057.834-4.113 1.205-6.264h-14.921c-.37 2.151-.648 4.207-1.019 6.264h-3.151Zm20.389-24.68c-2.132 0-4.171.093-6.117 0-.927 0-1.205.374-1.483 1.215-1.205 4.02-2.595 7.946-3.892 11.873a65.62 65.62 0 0 0-.834 2.337h9.082c1.112-5.142 2.131-10.19 3.244-15.425Z" fill="#F2F2F2"/><path d="M248.821 74.695c5.004-20.286 10.009-40.572 15.013-60.952h-1.946c-82.666 0-165.425 0-248.091.093-4.912 0-7.23-3.459-7.23-7.292C6.662 3.552 8.422.841 11.203.187 11.758.093 12.314 0 12.777 0h268.295c-.649 2.805-1.39 5.61-2.039 8.32-.371 1.683-.649 3.46-1.112 5.142-.834 3.459-1.854 6.918-2.78 10.377-2.132 8.414-4.264 16.828-6.302 25.241-2.039 8.227-3.985 16.547-6.024 24.774-.093.28-.464.748-.742.748-4.355.093-8.804.093-13.252.093Z" fill="#D2D2D2"/><path d="M92.203 75.163H13.707c-3.15 0-5.653-1.776-6.58-4.768-.833-2.524.279-5.329 2.78-7.105 1.298-.935 2.781-1.122 4.264-1.122h155.972c3.707 0 7.229-3.365 7.785-7.011.463-3.366-.278-6.17-2.78-8.507-1.483-1.31-3.151-2.15-5.19-2.15H85.994c-2.78 0-4.819-1.122-6.024-3.74-1.297-2.711-.741-5.235 1.205-7.292 1.205-1.309 2.688-2.057 4.634-2.057h83.037c10.657 0 19.647 7.573 21.593 17.95 1.298 6.824-.556 12.9-5.004 18.136-3.615 4.3-8.248 6.638-13.716 7.573-.464.093-.927 0-1.298 0-26.134.093-52.176.093-78.218.093ZM384.687 115.642h-5.098c-.741 0-1.019-.187-.834-1.028l4.171-19.632c.092-.28.648-.748.926-.748 3.244 0 6.58 0 9.824.187 2.317.093 3.892 1.59 4.448 3.833.464 1.87-.463 4.113-2.224 5.048-.278.187-.649.281-1.019.561-.556.374-.649.654 0 1.122.834.654 1.668 1.309 2.131 2.15 1.112 1.87.278 3.646-.741 5.329-1.112 1.869-3.058 2.617-5.097 2.898-2.224.28-4.449.28-6.58.374.093 0 .093 0 .093-.094Zm2.316-2.991h2.781c1.668-.094 2.965-.655 3.707-2.244.741-1.776 0-3.646-1.947-3.926-2.224-.281-4.541-.187-6.857-.187-.186 0-.464.374-.464.561-.371 1.589-.741 3.272-1.112 4.861-.093.561.093.935.741.935h3.151Zm-1.946-9.255c2.595-.094 4.819-.187 7.044-.374 1.575-.187 2.502-1.777 2.316-3.553-.185-1.402-1.112-2.15-2.873-2.15h-3.521c-1.668 0-1.761 0-2.039 1.683-.371 1.308-.556 2.711-.927 4.394ZM189.88 115.643h-5.19c-.741 0-.927-.28-.741-.935l4.17-19.632c.093-.374.649-.748.927-.748 3.243 0 6.58 0 9.823.187 2.503.187 4.171 1.87 4.541 4.207.278 1.496-.741 4.113-2.872 4.955-.371.093-.557.467-.835.748.278.28.464.561.742.748 2.317 1.495 2.78 3.552 1.761 6.076-1.112 2.618-3.244 3.833-5.839 4.114-2.131.28-4.356.28-6.487.373v-.093Zm-1.576-2.992c2.595 0 4.912.094 7.136 0 1.483 0 2.688-.841 3.244-2.243.741-1.776 0-3.646-1.853-3.927-1.669-.28-3.337-.187-5.098-.187-2.131 0-2.224 0-2.687 2.151-.186 1.308-.464 2.711-.742 4.206Zm6.488-15.331c-.834 0-1.668-.094-2.41 0-.371.093-.834.467-.927.748-.37 1.308-.648 2.711-.926 4.113-.186.654 0 1.028.834 1.028 1.483 0 3.058.094 4.541 0 .834-.093 1.668-.28 2.409-.654 1.112-.561 1.668-2.15 1.39-3.46-.278-1.12-1.204-1.775-2.594-1.775h-2.317ZM495.154 94.328c-.927 4.487-1.853 8.881-2.78 13.275.093.094.185.187.371.187.556-.467 1.112-.841 1.575-1.402 2.41-2.898 4.819-5.796 7.321-8.6.556-.655 1.02-1.216 1.576-1.87.741-1.029 1.575-1.777 2.966-1.496.556.093 1.204 0 1.946 0-.371 1.776-.742 3.365-1.02 5.048-1.112 5.235-2.224 10.377-3.336 15.612-.093.281-.556.748-.834.748-3.522 0-3.058.561-2.317-2.711.649-3.272 1.39-6.544 2.132-9.816.092-.281-.093-.655-.186-.935-.278.187-.556.187-.741.467-3.244 3.833-6.487 7.76-9.731 11.593-1.112 1.308-2.873 1.963-4.356 1.495-.185-.093-.463-.56-.371-.841.649-3.178 1.391-6.357 2.039-9.536.742-3.365 1.39-6.637 2.132-10.003.185-.747.463-1.028 1.205-.934.556-.28 1.39-.28 2.409-.28ZM408.685 94.328a1604.67 1604.67 0 0 1-2.78 13.181c.092.094.185.187.37.187.556-.467 1.112-.841 1.576-1.402 2.409-2.898 4.819-5.796 7.321-8.6.556-.655 1.112-1.31 1.576-1.964.741-.935 1.575-1.683 2.872-1.496.649.094 1.205 0 2.039 0-.463 2.15-.834 4.207-1.297 6.17-1.02 4.768-2.039 9.629-3.058 14.397-.093.655-.371.748-.927.748-3.336-.093-2.966.467-2.224-2.805.648-3.272 1.39-6.544 2.131-9.816.093-.28-.093-.654-.093-.934-.278.093-.556.186-.741.467-3.244 3.833-6.58 7.759-9.731 11.592-1.112 1.309-2.78 1.963-4.356 1.496-.185-.093-.463-.561-.37-.841 1.019-4.862 2.039-9.723 3.151-14.584.37-1.59.741-3.272 1.019-4.861.093-.748.464-1.029 1.205-1.029.463.094 1.297.094 2.317.094ZM267.077 103.023c-.186 5.049-3.059 10.564-8.156 12.434-4.17 1.496-8.619.561-11.028-3.272-1.298-2.15-1.668-4.581-1.112-7.105.556-2.524 1.297-4.861 2.873-6.918 1.575-2.057 3.614-3.366 6.116-4.02 2.41-.654 4.819-.467 7.136.841 2.688 1.59 4.263 4.862 4.171 8.04Zm-16.682 4.114c0 2.243.649 4.207 2.78 5.235 2.225 1.028 4.356.748 6.21-.748 2.038-1.496 2.965-3.739 3.521-6.17.464-1.87.464-3.833-.37-5.703-1.483-3.365-6.58-3.646-9.175-.841-2.039 2.337-2.966 5.142-2.966 8.227ZM100.17 103.208c-.463 4.675-2.132 8.881-6.487 11.499-4.356 2.524-9.917 2.057-12.697-2.431-1.39-2.243-1.668-4.767-1.112-7.291.556-2.431 1.297-4.768 2.873-6.825 1.575-2.057 3.707-3.365 6.117-3.926 2.409-.655 4.819-.468 7.043.841 3.058 1.683 4.078 4.58 4.263 8.133Zm-3.892-.093v-.468c0-2.524-1.113-4.394-2.966-5.141-2.688-1.029-5.375-.094-6.858 1.495-2.132 2.338-3.058 5.236-3.058 8.508.092 2.056.648 3.833 2.594 4.767 2.04 1.029 3.986.935 5.84-.28 3.243-2.15 4.17-5.329 4.448-8.881ZM181.724 103.208c-.464 4.675-2.132 8.881-6.487 11.499-4.356 2.524-9.917 2.057-12.697-2.431-1.39-2.243-1.668-4.767-1.112-7.291.556-2.431 1.297-4.768 2.873-6.825 1.575-2.057 3.707-3.365 6.116-3.926 2.41-.655 4.82-.468 7.044.841 3.058 1.683 4.17 4.58 4.263 8.133Zm-16.682 3.833c0 2.337.649 3.927 1.946 4.862 2.317 1.589 5.376 1.402 7.414-.561 2.503-2.431 3.522-5.423 3.429-8.788 0-2.431-1.204-4.3-3.058-4.955-2.78-1.122-5.375 0-6.765 1.496-2.039 2.15-2.966 4.955-2.966 7.946ZM18.9 112.932c2.687-.187 3.15-.561 3.707-3.179 1.02-4.768 2.039-9.629 3.15-14.397.093-.374.557-1.028.835-1.028 4.448-.094 8.99 0 13.623 0-.463 2.15-.834 4.113-1.297 6.17-1.02 4.768-2.04 9.629-3.059 14.397-.185.654-.37.841-1.02.841h-2.13c-.742 0-.835-.28-.742-.935l3.336-15.705c.371-1.496.186-1.683-1.297-1.683h-3.8c-.834 0-1.205.187-1.39 1.122-.927 4.487-1.946 9.068-3.058 13.462-.834 2.991-2.688 4.3-5.375 4.207-.556 0-1.113-.094-1.576-.281-.185-.093-.463-.561-.463-.748.185-.841.463-1.495.556-2.243ZM357.347 94.328c-.556 2.524-1.02 4.955-1.483 7.386-.927 4.393-1.946 8.787-2.873 13.181-.093.655-.371.748-.927.748h-2.131c-.742 0-.927-.28-.742-.935l3.337-15.706c.37-1.589.278-1.682-1.39-1.682h-3.8c-.834 0-1.112.28-1.298 1.122-1.019 4.58-1.853 9.161-3.151 13.555-.926 3.553-3.336 4.674-6.95 3.926-.186-.093-.371-.187-.649-.28.185-.841.463-1.776.649-2.618 2.78-.28 3.336-.748 3.892-3.739 1.02-4.674 1.946-9.442 2.966-14.117.092-.373.556-.84.926-.84h13.624ZM473.374 94.327a270.271 270.271 0 0 1-1.761 8.413c.371.094.741.094 1.019.094h7.044c.741 0 1.112-.28 1.204-.935.464-2.244.927-4.394 1.391-6.637.092-.655.37-1.029 1.112-.935h2.965c-.463 2.15-.834 4.113-1.297 6.17-1.02 4.768-2.039 9.629-3.058 14.397-.093.654-.371.841-1.02.841h-2.131c-.742 0-.927-.28-.742-.935.556-2.524 1.112-4.955 1.576-7.479.278-1.215.092-1.402-1.02-1.402h-6.58c-.834 0-1.204.187-1.39 1.028-.556 2.711-1.205 5.329-1.668 8.04-.093.655-.371.842-.927.748h-1.019c-2.595 0-2.132 0-1.668-2.057 1.204-6.076 2.595-12.153 3.892-18.23.185-.84.463-1.121 1.297-1.121h2.781ZM449.089 112.745h12.233c-.186.935-.371 1.776-.649 2.524-.093.28-.556.467-.834.467H445.66c-.742 0-.927-.28-.742-1.028 1.39-6.544 2.78-12.995 4.171-19.539.092-.374.648-.841.926-.841 4.449-.094 8.99 0 13.438 0 .649 0 .834.093.649.841-.649 2.618-.278 2.15-2.595 2.15h-7.97c-.834 0-1.205.281-1.297 1.122-.186 1.496-.557 2.992-.927 4.581.556 0 1.019.094 1.483.094h8.248c1.39 0 1.39 0 1.019 1.402v.093c-.093 1.216-.741 1.59-2.039 1.59-2.78-.094-5.56 0-8.341 0-.741 0-1.112.187-1.297 1.028-.463 1.683-.927 3.459-1.297 5.516ZM323.06 103.022c.649 0 1.02.094 1.483.094h8.526c.742 0 1.02.093.742.935-.649 2.243-.093 2.056-2.595 2.056-2.595 0-5.097.094-7.692 0-1.02 0-1.39.374-1.576 1.216-.278 1.776-.648 3.459-1.019 5.328.649 0 1.019.094 1.483.094h9.453c.926 0 1.297.093.926 1.215-.648 1.963-.092 1.87-2.317 1.87H317.5c-.834 0-1.112-.187-.927-1.122 1.39-6.45 2.78-12.901 4.171-19.445.092-.28.556-.748.834-.748h13.901c.093 0 .185.094.463.187-.185.748-.278 1.59-.556 2.337-.092.28-.741.468-1.112.468-2.965 0-5.838.093-8.804 0-1.019 0-1.483.187-1.668 1.402 0 1.122-.371 2.524-.742 4.113ZM288.673 94.515c-.185.841-.278 1.682-.649 2.337-.093.28-.741.467-1.112.467-2.966 0-5.839.094-8.804 0-1.02 0-1.483.187-1.576 1.31-.092 1.12-.37 2.243-.741 3.365-.278.934.093 1.121.927 1.121h9.916c-.185.935-.371 1.777-.649 2.525-.092.28-.741.467-1.112.467h-8.804c-.834 0-1.297.187-1.483 1.122-.278 1.496-.649 2.991-.927 4.581-.185.841.278 1.028 1.02 1.028h11.028c-.185.935-.37 1.776-.648 2.524-.093.281-.557.468-.835.468H269.86c-.742 0-.834-.374-.649-1.029 1.112-5.235 2.317-10.564 3.429-15.799.278-1.215.463-2.524.741-3.646.093-.374.557-.841.927-.841 4.541-.094 9.082 0 13.623 0 .278-.187.464-.094.742 0ZM362.813 112.651H374.026c.649 0 1.02.094.742.935-.649 2.337-.093 2.057-2.595 2.057h-12.697c-1.019 0-1.297-.187-1.019-1.309 1.39-6.45 2.688-12.901 4.078-19.258.092-.28.556-.748.834-.748h13.901c.093 0 .185.094.463.187-.185.841-.37 1.59-.648 2.43-.093.281-.649.375-1.02.375-2.965 0-5.838.093-8.804 0-1.019 0-1.483.187-1.668 1.402-.185 1.402-.556 2.805-.927 4.3.649 0 1.02.094 1.483.094h8.526c.742 0 1.02.093.742.935-.649 2.243-.093 2.056-2.595 2.056-2.595 0-5.097.094-7.692 0-1.02 0-1.391.374-1.576 1.216 0 1.682-.371 3.459-.741 5.328ZM528.605 94.515c-.185.748-.278 1.59-.556 2.15-.185.281-.741.561-1.112.561a144.1 144.1 0 0 1-8.99 0c-.834 0-1.297.187-1.39 1.122-.185 1.216-.463 2.431-.741 3.553-.093.28-.093.561-.093 1.028h9.916c.742 0 1.02.094.742.935-.649 2.244-.093 2.057-2.595 2.057h-7.785c-.741 0-1.205.187-1.39 1.028-.278 1.589-.649 3.085-1.019 4.674-.093.281 0 .468.092.842.464 0 1.02.093 1.483.093h9.453c.834 0 1.298.187.834 1.029-.093.28-.185.654-.278.934-.093.748-.463 1.029-1.205 1.029h-13.994c-.834 0-1.019-.187-.834-1.029 1.39-6.45 2.781-12.901 4.171-19.445.092-.374.556-.841.834-.841 4.634-.094 9.267 0 13.901 0 .185.093.278.187.556.28ZM55.034 110.782h-8.433c-.278 0-.649.281-.834.561-.742 1.215-1.298 2.431-2.04 3.553-.184.374-.74.654-1.204.748-.927.093-1.853 0-3.058 0 1.297-2.338 2.41-4.581 3.614-6.731 1.39-2.618 2.873-5.236 4.356-7.853 1.112-2.057 2.224-4.114 3.429-6.077.185-.28.649-.56 1.02-.56 1.111-.094 2.13 0 3.243 0 .556 0 .834.093.927.747.926 6.077 1.946 12.153 2.873 18.23.092.748.185 1.496.37 2.337-1.02 0-2.038.094-2.965-.093-.371-.094-.742-.655-.834-1.029-.186-1.215-.278-2.43-.464-3.833Zm-6.95-2.991h5.004c1.39 0 1.576-.281 1.39-1.683l-1.112-7.011c0-.188-.185-.374-.278-.655-.185.187-.463.28-.556.468-1.39 2.524-2.78 5.048-4.078 7.572-.278.374-.278.748-.37 1.309ZM241.961 115.642h-3.336c-.278 0-.556-.374-.649-.654-.648-2.15-1.204-4.3-1.853-6.357-.278-1.028-.556-1.963-1.761-2.431-1.019-.374-1.483-.187-1.761.935-.556 2.618-1.205 5.142-1.668 7.76-.093.747-.463.841-1.019.841h-1.02c-2.039 0-2.039 0-1.575-2.057 1.297-6.076 2.595-12.247 3.892-18.323.093-.654.371-1.028 1.112-.935h2.966c-.371 1.59-.649 3.085-.927 4.58-.278 1.123-.463 2.245-.741 3.366-.186 1.029.185 1.496 1.204 1.122.742-.28 1.483-.748 1.947-1.309 1.204-1.776 2.317-3.646 3.521-5.422 1.39-1.963 3.337-2.617 5.839-2.337-.278.841-.464 1.59-.742 2.244-.092.187-.556.467-.834.374-1.204-.094-1.76.56-2.317 1.495a39.857 39.857 0 0 1-2.78 4.114c-.463.654-1.297 1.122-2.039 1.496-.556.28-.648.561-.185.841 1.946.935 2.595 2.711 3.058 4.674.556 1.964 1.112 3.927 1.668 5.983ZM141.323 100.217c-1.298.094-2.41.281-3.615.374-.092-.187-.278-.28-.371-.467-.463-2.898-3.521-3.366-5.745-2.805-2.317.561-3.707 2.15-4.634 4.301-1.02 2.43-1.483 4.861-.927 7.479.371 1.963 1.483 3.459 3.522 3.832 2.224.374 4.17-.28 5.56-2.243.464-.561.742-1.309 1.205-2.057 1.112.187 2.317.374 3.522.561-1.946 5.703-8.156 8.601-13.346 6.264-2.409-1.122-3.799-3.179-4.263-5.797-.741-4.019.093-7.759 2.317-11.124 2.595-3.927 8.248-5.703 12.511-3.833 2.41.934 3.8 2.804 4.264 5.515ZM225.281 100.218c-1.112.093-2.225.28-3.337.374-.185 0-.463-.281-.463-.468-.371-1.496-1.112-2.43-2.595-2.804-1.668-.374-3.151-.28-4.726.56-2.595 1.403-3.429 3.927-3.985 6.545-.278 1.495-.278 3.178 0 4.767.278 1.964 1.482 3.366 3.429 3.74 2.131.467 4.077-.281 5.467-2.057.464-.561.742-1.309 1.205-2.15 1.112.187 2.317.374 3.522.561-1.854 5.702-8.341 8.694-13.345 6.263-2.317-1.121-3.707-3.178-4.171-5.702-.741-4.02.093-7.76 2.317-11.125 2.595-3.927 8.155-5.703 12.511-3.833 2.224.56 3.985 2.992 4.171 5.329ZM3.511 98.72c1.02-2.618 2.966-3.927 5.283-4.58 2.41-.655 4.726-.188 6.858 1.121 3.243 1.963 3.336 6.264.185 8.414-.463.28-.834.561-1.297.748-.834.374-.742.748-.093 1.121 3.707 2.244 2.78 6.731-.278 8.788-3.614 2.337-7.507 2.524-11.306.468-1.02-.561-1.669-1.87-2.41-2.898-.093-.094.185-.655.37-.748.835-.374 1.762-.561 2.596-.748.185 0 .648.28.834.561 1.39 2.243 5.56 2.804 7.599 1.028 1.02-.935 1.39-2.337 1.02-3.552-.464-1.496-1.669-1.87-3.059-2.057-.37-.094-.834 0-1.39 0 .185-1.029.37-1.87.556-2.805.093-.187.556-.374.834-.467.742-.187 1.668-.094 2.41-.374 1.575-.561 2.224-1.87 2.039-3.553-.093-1.028-1.02-1.963-2.317-2.056-1.761-.187-3.615-.094-4.634 1.776-.093.187-.463.374-.741.374-.835-.094-1.854-.374-3.059-.561ZM101.28 115.83c0-.281.092-.561.092-.748.093-1.87.093-1.963 1.946-1.87 1.947.094 4.356-2.524 3.615-4.768-1.298-4.113-2.41-8.413-3.615-12.62a11.646 11.646 0 0 0-.37-1.496c1.204 0 2.224-.094 3.243 0 .278 0 .742.467.742.748.741 3.178 1.39 6.263 2.039 9.442.092.467.37.841.648 1.215.371-.28.834-.467 1.112-.841 2.317-3.272 4.634-6.544 6.951-9.723.278-.374.927-.654 1.39-.748.927-.093 1.946 0 2.966 0 0 .187 0 .374-.093.468-4.819 6.357-9.545 12.807-14.365 19.165-1.482 2.056-3.707 2.524-6.301 1.776ZM146.503 115.643c1.297-6.17 2.595-12.153 3.799-18.323h-6.394c.185-1.029.37-1.87.556-2.618.092-.187.463-.374.648-.374h15.941c-.186.935-.278 1.683-.556 2.43-.093.281-.649.562-1.02.562-1.761.093-3.522 0-5.375 0-1.019 4.861-2.039 9.535-2.966 14.303-.278 1.122-.37 2.244-.741 3.366-.093.28-.556.654-.834.654-.834.093-1.854 0-3.058 0ZM306.462 97.32h-6.395c.186-.935.371-1.776.556-2.618 0-.187.371-.374.556-.374h16.033c-.185.935-.278 1.683-.556 2.43-.092.281-.648.562-1.019.562-1.761.093-3.522 0-5.375 0-1.205 5.889-2.503 11.592-3.615 17.388-.185.748-.37 1.028-1.112 1.028h-2.965c1.39-6.17 2.595-12.153 3.892-18.416ZM79.502 94.514c-.186.655-.278 1.496-.464 2.244-.092.28-.556.467-.926.467-1.39.094-2.78 0-4.263 0-.371 0-.835 0-1.205.094-1.205 5.796-2.503 11.592-3.615 17.295-.185.748-.37 1.028-1.112 1.028h-2.873a768.06 768.06 0 0 1 1.39-6.544c.742-3.646 1.576-7.198 2.317-10.844.186-.655-.092-1.029-.834-1.029H62.45c.186-.934.279-1.682.556-2.524.093-.187.464-.467.742-.467h15.662c-.093.093-.093.187.093.28Z" fill="#F2F2F2"/><path d="M165.048 107.042c0-3.085.927-5.797 2.966-8.04 1.39-1.59 4.077-2.618 6.765-1.496 1.853.748 2.966 2.524 3.058 4.955.093 3.459-.926 6.45-3.429 8.787-2.039 1.964-5.097 2.151-7.414.561-1.297-.841-1.946-2.43-1.946-4.767Z" fill="#373334"/></g></svg><svg fill="none" viewBox="0 0 16 16" id="Facebook" xmlns="http://www.w3.org/2000/svg"><g clip-path="url(#ea)"><path d="M16 8a8 8 0 1 0-9.25 7.903v-5.59H4.719V8H6.75V6.237c0-2.005 1.194-3.112 3.022-3.112.875 0 1.79.156 1.79.156V5.25h-1.008c-.994 0-1.304.617-1.304 1.25V8h2.219l-.355 2.313H9.25v5.59A8.002 8.002 0 0 0 16 8Z" fill="currentColor"/></g><defs><clipPath id="ea"><path fill="#fff" d="M0 0h16v16H0z"/></clipPath></defs></svg><svg fill="none" viewBox="0 0 15 15" id="Instagram" xmlns="http://www.w3.org/2000/svg"><path d="M15 7.5v3.249a4.202 4.202 0 0 1-2.724 3.896 5.62 5.62 0 0 1-2.115.353H4.524a4.495 4.495 0 0 1-2.564-.733 4.152 4.152 0 0 1-1.843-2.523A4.405 4.405 0 0 1 0 10.764V4.35c0-1.101.308-2.09 1.092-2.888A4.495 4.495 0 0 1 3.924.046C4.598-.014 5.273.003 5.934 0h4.306c.973 0 1.908.157 2.74.696a4.166 4.166 0 0 1 1.88 2.472c.087.353.131.715.133 1.079.016 1.083 0 2.166 0 3.25l.007.001Zm-13.876 0v3.28c0 1.27.674 2.13 1.753 2.72a3.482 3.482 0 0 0 1.694.37h5.806a3.738 3.738 0 0 0 1.919-.492c1.016-.589 1.573-1.456 1.573-2.636a460.4 460.4 0 0 0 0-6.575c0-1.297-.735-2.153-1.843-2.721a3.425 3.425 0 0 0-1.598-.328H4.655a3.779 3.779 0 0 0-1.78.393c-1.077.56-1.727 1.431-1.751 2.678-.027 1.104 0 2.207 0 3.31Z" fill="currentColor"/><path d="M1.124 7.5v3.28c0 1.27.674 2.13 1.753 2.72a3.482 3.482 0 0 0 1.694.37h5.806a3.738 3.738 0 0 0 1.919-.492c1.016-.589 1.573-1.456 1.573-2.636a460.4 460.4 0 0 0 0-6.575c0-1.297-.735-2.153-1.843-2.721a3.425 3.425 0 0 0-1.598-.328H4.655a3.779 3.779 0 0 0-1.78.393c-1.077.56-1.727 1.431-1.751 2.678-.027 1.104 0 2.207 0 3.31Z" fill="currentColor"/><path d="M7.506 10.704a3.477 3.477 0 1 1 3.529-3.47 3.51 3.51 0 0 1-3.529 3.47ZM5.108 7.226a2.404 2.404 0 1 0 2.405-2.36 2.396 2.396 0 0 0-2.405 2.36ZM12.184 3.459a.74.74 0 1 1-.735-.766.764.764 0 0 1 .735.766Z" fill="#fff"/></svg><svg fill="none" viewBox="0 0 28 28" id="Link" xmlns="http://www.w3.org/2000/svg"><path d="m18.205 8.242.946 12.958 2.544-2.544-.972-12.828-11.205-.45L7 7.894l11.205.347Z" fill="currentColor"/><path d="M17.788 7.135 5.014 19.909l2.012 2.012L19.8 9.147l-2.012-2.012Z" fill="currentColor"/></svg><svg fill="none" viewBox="0 0 214 48" id="Logo" xmlns="http://www.w3.org/2000/svg"><path d="M213.604 9.489c-.073.073-.183.184-.183.257-.182 2.317-1.203 4.156-2.844 5.738-.656.625-.693.625-.255 1.435a8.421 8.421 0 0 1 .984 4.965c-.291 2.465-1.458 4.487-3.463 5.995-1.35.994-2.845 1.656-4.485 1.656-15.314 0-30.629-.037-45.943-.074h-17.392c.182-.735.328-1.434.51-2.096 1.203-4.892 2.443-9.784 3.646-14.713.073-.331.219-.441.511-.405h4.375c.328 0 .438.037.328.442-.729 2.905-1.458 5.774-2.151 8.68-.219.846-.401 1.692-.62 2.538-.073.331 0 .442.329.405h.474c18.522 0 37.045 0 55.605.037.802 0 1.494-.11 2.114-.663.584-.514.985-1.14 1.131-1.949.364-2.133-.839-3.972-3.027-4.303-1.422-.221-2.807-.148-4.193-.148-13.6-.036-27.201 0-40.801 0h-.656c.182-.662.328-1.25.474-1.839.255-.956.474-1.912.729-2.869.073-.33.219-.441.547-.441.656.074 1.349.074 2.005.11l16.044.11c3.463.038 6.891.074 10.355.074 2.99.037 5.98.074 8.97.074 2.771.037 5.542.073 8.313.073.912 0 1.75-.294 2.443-.956.839-.81 1.13-1.802 1.057-2.98-.073-1.323-1.13-2.721-2.443-3.015-.364-.074-.765-.147-1.166-.147h-17.028a9825.361 9825.361 0 0 0-32.926-.074c-10.72-.037-21.44-.074-32.123-.074-.656 0-.656 0-.802.626-1.094 4.45-2.188 8.864-3.282 13.315l-2.406 9.71c-.037.147-.219.331-.365.331-1.568.037-3.136 0-4.74 0-.037 0-.109-.037-.219-.037.292-1.14.547-2.244.839-3.347 1.568-6.29 3.099-12.542 4.667-18.832a430.16 430.16 0 0 0 1.604-6.62c.073-.368.256-.442.62-.442h87.4c1.021 0 1.933.405 2.771.846 1.495.81 2.589 1.986 3.391 3.457.657 1.25 1.204 2.502 1.24 3.936 0 .074.073.147.11.22-.073.368-.073.663-.073.994ZM164.6 48c.219-1.103.474-2.207.693-3.347.036-.258.182-.368.437-.331.365.073.547-.11.693-.442 1.057-2.023 1.604-4.156 2.042-6.363.036-.257.109-.404.401-.404h5.287c.073 0 .109.037.219.037-.183.845-.365 1.728-.547 2.574-.292 1.435-.62 2.832-.912 4.267-.036.257 0 .368.292.368s.328.11.255.367a73.25 73.25 0 0 0-.583 2.759c-.037.184 0 .331 0 .515h-1.24c.146-.81.328-1.618.474-2.464h-5.87c-.146.846-.256 1.655-.401 2.464h-1.24Zm8.022-9.71c-.839 0-1.641.037-2.407 0-.365 0-.474.147-.583.478-.474 1.581-1.021 3.126-1.532 4.671-.109.294-.219.589-.328.92h3.573c.438-2.023.839-4.01 1.277-6.07Z" fill="#373334"/><path d="M97.726 29.388c1.969-7.981 3.938-15.963 5.907-23.981h-.766c-32.524 0-65.085 0-97.61.037-1.932 0-2.844-1.361-2.844-2.87.037-1.176.73-2.243 1.823-2.5.22-.037.438-.074.62-.074H110.415c-.256 1.103-.547 2.207-.803 3.274-.145.662-.255 1.36-.437 2.023-.328 1.36-.729 2.721-1.094 4.082-.839 3.31-1.677 6.62-2.479 9.931-.803 3.237-1.568 6.51-2.37 9.747-.037.11-.183.295-.292.295-1.714.036-3.464.036-5.214.036Z" fill="#9F0023"/><path d="M36.106 29.572H5.222c-1.24 0-2.224-.699-2.589-1.876-.328-.993.11-2.096 1.094-2.795.51-.368 1.094-.442 1.678-.442H66.77c1.458 0 2.844-1.324 3.062-2.758.183-1.324-.109-2.428-1.093-3.347-.584-.515-1.24-.846-2.042-.846H33.663c-1.094 0-1.896-.441-2.37-1.471-.51-1.067-.292-2.06.474-2.87.474-.514 1.057-.809 1.823-.809h32.67c4.193 0 7.73 2.98 8.496 7.063.51 2.684-.219 5.075-1.97 7.135-1.421 1.692-3.244 2.612-5.396 2.98-.182.036-.364 0-.51 0-10.282.036-20.528.036-30.774.036ZM151.181 45.498h-2.006c-.291 0-.401-.073-.328-.404l1.641-7.724c.037-.11.255-.295.365-.295 1.276 0 2.589 0 3.865.074.911.037 1.531.625 1.75 1.508.182.736-.182 1.618-.875 1.986-.11.074-.255.11-.401.22-.219.148-.255.258 0 .442.328.258.656.515.838.846.438.736.11 1.435-.291 2.097-.438.735-1.204 1.03-2.006 1.14-.875.11-1.75.11-2.589.147.037 0 .037 0 .037-.037Zm.911-1.177h1.094c.657-.036 1.167-.257 1.459-.882.292-.7 0-1.435-.766-1.545-.875-.11-1.787-.074-2.698-.074-.073 0-.182.147-.182.22-.146.626-.292 1.288-.438 1.913-.036.221.037.368.292.368h1.239Zm-.765-3.641a57.609 57.609 0 0 0 2.771-.147c.62-.074.984-.699.911-1.398-.072-.552-.437-.846-1.13-.846h-1.385c-.657 0-.693 0-.803.662-.145.515-.218 1.067-.364 1.729ZM74.536 45.499h-2.042c-.292 0-.365-.11-.292-.368l1.64-7.724c.037-.147.256-.294.365-.294 1.277 0 2.59 0 3.866.073.984.074 1.64.736 1.786 1.655.11.589-.291 1.619-1.13 1.95-.146.037-.219.184-.328.294.11.11.182.22.291.294.912.589 1.094 1.398.693 2.391-.437 1.03-1.276 1.508-2.297 1.618-.839.11-1.714.11-2.552.148v-.037Zm-.62-1.177c1.02 0 1.932.037 2.807 0 .584 0 1.058-.331 1.277-.883.291-.699 0-1.434-.73-1.545-.656-.11-1.312-.073-2.005-.073-.839 0-.875 0-1.058.846-.072.515-.182 1.066-.291 1.655Zm2.552-6.032c-.328 0-.656-.037-.948 0-.146.037-.328.184-.364.294-.146.515-.256 1.067-.365 1.618-.073.258 0 .405.328.405.584 0 1.203.037 1.787 0 .328-.037.656-.11.948-.258.437-.22.656-.845.547-1.36-.11-.442-.474-.7-1.021-.7h-.912ZM194.644 37.113c-.365 1.765-.73 3.494-1.094 5.223.036.036.073.073.146.073.218-.184.437-.33.619-.551.948-1.14 1.896-2.281 2.881-3.384.219-.258.401-.479.62-.736.291-.405.62-.699 1.167-.588.218.036.474 0 .765 0-.146.698-.291 1.324-.401 1.986-.437 2.06-.875 4.082-1.312 6.142-.037.11-.219.294-.329.294-1.385 0-1.203.221-.911-1.066.255-1.288.547-2.575.838-3.862.037-.11-.036-.258-.072-.368-.11.073-.219.073-.292.184-1.276 1.508-2.553 3.053-3.829 4.56-.437.516-1.13.773-1.713.59-.073-.038-.183-.221-.146-.332.255-1.25.547-2.501.802-3.752.292-1.324.547-2.611.839-3.935.072-.294.182-.405.474-.368.218-.11.546-.11.948-.11ZM160.623 37.113c-.365 1.765-.73 3.494-1.094 5.186.036.037.073.073.146.073.218-.184.437-.33.62-.551.948-1.14 1.896-2.28 2.88-3.384.219-.258.438-.515.62-.773.292-.367.62-.662 1.13-.588.256.037.474 0 .802 0-.182.846-.328 1.655-.51 2.427-.401 1.876-.802 3.789-1.203 5.665-.037.257-.146.294-.365.294-1.313-.037-1.167.184-.875-1.104a144 144 0 0 1 .839-3.861c.036-.11-.037-.258-.037-.368-.109.036-.219.073-.292.184-1.276 1.508-2.588 3.052-3.828 4.56-.438.515-1.094.773-1.714.589-.073-.037-.182-.22-.146-.331.401-1.913.803-3.825 1.24-5.738.146-.625.292-1.287.401-1.913.037-.294.182-.404.474-.404.182.037.511.037.912.037ZM104.908 40.534c-.073 1.986-1.203 4.156-3.209 4.892-1.64.588-3.39.22-4.338-1.288-.511-.846-.657-1.802-.438-2.795.219-.993.51-1.913 1.13-2.722.62-.81 1.422-1.324 2.407-1.582.948-.257 1.896-.184 2.807.331 1.058.626 1.678 1.913 1.641 3.164Zm-6.563 1.618c0 .883.255 1.655 1.094 2.06.875.404 1.714.294 2.443-.295.802-.588 1.167-1.47 1.385-2.427.183-.736.183-1.508-.146-2.244-.583-1.324-2.588-1.434-3.61-.33-.801.919-1.166 2.022-1.166 3.236ZM39.24 40.606c-.183 1.84-.839 3.494-2.553 4.524-1.713.993-3.901.81-4.995-.956-.547-.883-.656-1.876-.437-2.869.218-.956.51-1.876 1.13-2.685a4.18 4.18 0 0 1 2.406-1.545c.948-.257 1.896-.184 2.772.331 1.203.662 1.604 1.803 1.677 3.2Zm-1.532-.037v-.183c0-.994-.437-1.73-1.166-2.023a2.495 2.495 0 0 0-2.699.588c-.838.92-1.203 2.06-1.203 3.347.037.81.255 1.508 1.021 1.876.802.405 1.568.368 2.297-.11 1.276-.846 1.641-2.097 1.75-3.495ZM71.327 40.606c-.183 1.84-.839 3.494-2.553 4.524-1.713.993-3.901.81-4.995-.956-.547-.883-.656-1.876-.438-2.869.22-.956.511-1.876 1.13-2.685a4.18 4.18 0 0 1 2.407-1.545c.948-.257 1.896-.184 2.772.331 1.203.662 1.64 1.803 1.677 3.2Zm-6.564 1.508c0 .92.256 1.545.766 1.913.912.625 2.115.552 2.917-.22.985-.957 1.386-2.134 1.35-3.458 0-.956-.475-1.692-1.204-1.95-1.094-.441-2.115 0-2.662.589-.802.846-1.167 1.95-1.167 3.126ZM7.265 44.432c1.057-.074 1.24-.22 1.458-1.25.401-1.876.803-3.789 1.24-5.665.037-.147.219-.405.328-.405 1.75-.036 3.537 0 5.36 0-.182.846-.328 1.619-.51 2.428-.401 1.876-.802 3.789-1.204 5.664-.072.258-.145.331-.4.331h-.84c-.29 0-.327-.11-.29-.367l1.312-6.18c.146-.588.073-.662-.51-.662h-1.496c-.328 0-.474.074-.547.442a124.004 124.004 0 0 1-1.203 5.296c-.328 1.177-1.057 1.692-2.115 1.655a1.69 1.69 0 0 1-.62-.11c-.072-.037-.182-.22-.182-.294.073-.331.182-.589.219-.883ZM140.424 37.113c-.219.993-.401 1.95-.583 2.905-.365 1.73-.766 3.458-1.131 5.187-.036.257-.145.294-.364.294h-.839c-.292 0-.364-.11-.292-.368l1.313-6.18c.146-.624.109-.661-.547-.661h-1.495c-.328 0-.437.11-.51.441-.401 1.802-.73 3.605-1.24 5.333-.365 1.398-1.313 1.84-2.735 1.545-.073-.037-.146-.073-.255-.11.073-.331.182-.699.255-1.03 1.094-.11 1.313-.294 1.532-1.471.401-1.84.765-3.715 1.167-5.554.036-.147.218-.331.364-.331h5.36ZM186.074 37.112c-.219 1.14-.437 2.17-.693 3.31.146.037.292.037.401.037h2.771c.292 0 .438-.11.475-.367.182-.883.364-1.73.546-2.612.037-.258.146-.405.438-.368h1.167c-.183.846-.328 1.618-.511 2.428-.401 1.876-.802 3.788-1.203 5.664-.036.258-.146.331-.401.331h-.839c-.291 0-.364-.11-.291-.368.218-.993.437-1.95.619-2.942.11-.478.037-.552-.401-.552h-2.588c-.329 0-.474.074-.547.405-.219 1.066-.474 2.096-.657 3.163-.036.257-.146.33-.364.294h-.401c-1.021 0-.839 0-.657-.81.474-2.39 1.021-4.78 1.532-7.172.073-.33.182-.44.51-.44h1.094ZM176.519 44.358h4.813a6.59 6.59 0 0 1-.255.994c-.037.11-.219.184-.328.184h-5.579c-.292 0-.365-.11-.292-.405.547-2.575 1.094-5.113 1.641-7.687.037-.148.255-.332.365-.332 1.75-.036 3.537 0 5.287 0 .255 0 .328.037.255.332-.255 1.03-.109.845-1.021.845h-3.136c-.328 0-.474.11-.51.442-.073.588-.219 1.177-.365 1.802.219 0 .401.037.584.037h3.245c.547 0 .547 0 .401.552v.036c-.037.479-.292.626-.802.626-1.094-.037-2.188 0-3.282 0-.292 0-.437.073-.51.404-.183.662-.365 1.361-.511 2.17ZM126.934 40.533c.256 0 .401.037.584.037h3.354c.292 0 .401.037.292.368-.255.883-.037.81-1.021.81-1.021 0-2.005.036-3.026 0-.401 0-.547.146-.62.477-.11.7-.255 1.361-.401 2.097.255 0 .401.036.583.036h3.719c.365 0 .511.037.365.479-.255.772-.037.735-.912.735h-5.104c-.329 0-.438-.073-.365-.441.547-2.538 1.094-5.076 1.641-7.65.036-.11.219-.295.328-.295h5.469c.037 0 .073.037.183.074-.073.294-.11.625-.219.92-.037.11-.292.183-.438.183-1.167 0-2.297.037-3.464 0-.401 0-.583.074-.656.552 0 .441-.146.993-.292 1.618ZM113.405 37.186c-.073.331-.109.662-.255.92-.036.11-.292.183-.438.183-1.166 0-2.297.037-3.463 0-.402 0-.584.074-.62.515a5.775 5.775 0 0 1-.292 1.325c-.109.367.036.44.365.44H112.603a6.587 6.587 0 0 1-.255.994c-.037.11-.292.184-.438.184h-3.464c-.328 0-.51.074-.583.441-.109.589-.255 1.177-.365 1.803-.073.33.11.404.401.404H112.238a6.359 6.359 0 0 1-.255.993c-.036.11-.219.184-.328.184h-5.652c-.291 0-.328-.147-.255-.404.438-2.06.912-4.157 1.349-6.216.11-.479.183-.994.292-1.435.036-.147.219-.331.365-.331 1.786-.037 3.573 0 5.36 0 .109-.074.182-.037.291 0ZM142.575 44.322h4.412c.255 0 .401.037.291.368-.255.92-.036.809-1.021.809h-4.995c-.401 0-.51-.074-.401-.515.547-2.538 1.057-5.076 1.604-7.577.037-.11.219-.294.328-.294h5.47c.036 0 .073.037.182.073a9.395 9.395 0 0 1-.255.957c-.037.11-.255.147-.401.147-1.167 0-2.297.037-3.464 0-.401 0-.583.073-.656.551-.073.552-.219 1.104-.365 1.692.255 0 .401.037.583.037h3.355c.292 0 .401.037.292.368-.256.883-.037.81-1.021.81-1.021 0-2.006.036-3.027 0-.401 0-.547.146-.62.477 0 .662-.145 1.361-.291 2.097ZM207.805 37.186c-.073.295-.11.626-.219.846-.073.11-.292.221-.438.221-1.167.037-2.37.037-3.537 0-.328 0-.51.074-.547.441-.073.479-.182.957-.291 1.398-.037.11-.037.22-.037.405H206.638c.291 0 .401.036.291.367-.255.883-.036.81-1.021.81h-3.062c-.292 0-.474.073-.547.404-.11.626-.256 1.214-.401 1.84-.037.11 0 .183.036.33.182 0 .401.037.583.037h3.72c.328 0 .51.074.328.405-.037.11-.073.257-.11.368-.036.294-.182.404-.474.404h-5.505c-.329 0-.401-.073-.329-.404.547-2.538 1.094-5.076 1.641-7.65.037-.148.219-.332.328-.332 1.823-.037 3.647 0 5.47 0 .073.037.109.074.219.11ZM21.482 43.586h-3.318c-.11 0-.255.11-.328.221-.292.478-.51.956-.802 1.398-.073.147-.292.257-.474.294-.365.037-.73 0-1.204 0 .51-.92.949-1.802 1.423-2.648.546-1.03 1.13-2.06 1.713-3.09.438-.81.875-1.618 1.35-2.39a.555.555 0 0 1 .4-.221c.438-.037.839 0 1.277 0 .218 0 .328.036.364.294.365 2.39.766 4.781 1.13 7.172.037.294.073.589.146.92-.4 0-.802.036-1.166-.037-.146-.037-.292-.258-.329-.405-.073-.478-.109-.956-.182-1.508Zm-2.735-1.177h1.97c.546 0 .62-.11.546-.662l-.437-2.758c0-.074-.073-.147-.11-.258-.073.074-.182.11-.218.184-.547.993-1.094 1.986-1.605 2.98-.11.146-.11.294-.146.514ZM95.027 45.498h-1.313c-.11 0-.219-.147-.255-.257-.255-.846-.474-1.692-.73-2.501-.109-.405-.218-.773-.692-.957-.401-.147-.584-.073-.693.368-.219 1.03-.474 2.023-.656 3.053-.037.294-.183.331-.401.331h-.401c-.803 0-.803 0-.62-.809.51-2.39 1.02-4.818 1.531-7.21.037-.257.146-.404.438-.367H92.4a39.573 39.573 0 0 0-.364 1.802c-.11.442-.183.883-.292 1.324-.073.405.073.589.474.442.292-.11.584-.294.766-.515.474-.699.911-1.435 1.385-2.133.547-.773 1.313-1.03 2.298-.92-.11.331-.183.625-.292.883-.037.073-.219.184-.328.147-.474-.037-.693.22-.912.588a15.727 15.727 0 0 1-1.094 1.619c-.182.257-.51.441-.802.588-.219.11-.255.22-.073.331.766.368 1.021 1.067 1.203 1.84.22.772.438 1.544.657 2.353ZM55.431 39.43c-.51.037-.948.11-1.422.147-.036-.074-.11-.11-.146-.184-.182-1.14-1.385-1.324-2.26-1.104-.912.221-1.459.846-1.823 1.692-.401.957-.584 1.913-.365 2.943.146.772.583 1.36 1.386 1.508.875.147 1.64-.11 2.187-.883.183-.22.292-.515.474-.809.438.074.912.147 1.386.22-.766 2.245-3.209 3.385-5.25 2.465-.949-.441-1.496-1.25-1.678-2.28-.292-1.582.036-3.053.912-4.377 1.02-1.545 3.245-2.244 4.922-1.508.948.367 1.495 1.103 1.677 2.17ZM88.464 39.43c-.438.037-.875.11-1.313.147-.073 0-.182-.11-.182-.184-.146-.589-.438-.956-1.021-1.104-.656-.147-1.24-.11-1.86.221-1.02.552-1.349 1.545-1.568 2.575-.109.588-.109 1.25 0 1.876.11.772.584 1.324 1.35 1.471.838.184 1.604-.11 2.15-.81.183-.22.292-.514.475-.845.437.073.911.147 1.385.22-.729 2.244-3.281 3.421-5.25 2.465-.912-.442-1.459-1.25-1.641-2.244-.292-1.581.036-3.053.911-4.377 1.021-1.545 3.21-2.244 4.923-1.508.875.22 1.568 1.177 1.64 2.097ZM1.21 38.84c.402-1.03 1.167-1.544 2.079-1.802.948-.257 1.86-.073 2.698.442 1.276.772 1.313 2.464.073 3.31-.182.11-.328.22-.51.294-.329.147-.292.294-.037.442 1.459.882 1.094 2.648-.11 3.457-1.421.92-2.953.993-4.448.184-.4-.22-.656-.736-.948-1.14-.036-.037.073-.258.146-.294.328-.148.693-.221 1.021-.295.073 0 .255.11.328.221.547.883 2.188 1.103 2.99.405.401-.368.547-.92.401-1.398-.182-.589-.656-.736-1.203-.81-.146-.036-.328 0-.547 0 .073-.404.146-.735.219-1.103.036-.073.219-.147.328-.184.292-.073.656-.036.948-.147.62-.22.875-.735.802-1.397-.036-.405-.401-.773-.911-.81-.693-.073-1.422-.036-1.824.7-.036.073-.182.146-.291.146-.328-.036-.73-.147-1.204-.22ZM39.677 45.572c0-.11.036-.22.036-.294.037-.736.037-.772.766-.736.766.037 1.714-.993 1.422-1.876-.51-1.618-.948-3.31-1.422-4.965a4.601 4.601 0 0 0-.146-.589c.474 0 .875-.036 1.276 0 .11 0 .292.184.292.295.292 1.25.547 2.464.802 3.715.037.184.146.33.255.478.146-.11.328-.184.438-.331.911-1.288 1.823-2.575 2.735-3.825.109-.148.364-.258.547-.295.364-.037.765 0 1.166 0 0 .074 0 .147-.036.184-1.896 2.501-3.756 5.04-5.652 7.54-.583.81-1.458.994-2.48.7ZM57.47 45.499c.51-2.428 1.02-4.782 1.494-7.21h-2.516c.073-.404.146-.735.219-1.03.036-.073.182-.146.255-.146h6.272c-.073.367-.11.662-.219.956-.037.11-.255.22-.401.22-.693.038-1.386 0-2.115 0-.401 1.913-.802 3.752-1.167 5.628-.11.442-.145.883-.291 1.324-.037.11-.22.258-.329.258-.328.037-.729 0-1.203 0ZM120.404 38.29h-2.516c.073-.368.146-.7.219-1.03 0-.074.146-.147.218-.147h6.308c-.072.367-.109.662-.218.956-.037.11-.256.22-.401.22-.693.038-1.386 0-2.115 0-.474 2.318-.985 4.562-1.422 6.842-.073.294-.146.405-.438.405h-1.167c.547-2.428 1.021-4.782 1.532-7.246ZM31.108 37.186c-.073.257-.11.588-.182.883-.036.11-.219.183-.365.183-.547.037-1.094 0-1.677 0-.146 0-.328 0-.474.037-.474 2.28-.985 4.561-1.422 6.805-.073.294-.146.404-.438.404h-1.13c.182-.882.365-1.728.547-2.574.292-1.435.62-2.833.912-4.267.072-.257-.037-.405-.329-.405H24.4c.072-.367.109-.662.218-.993.036-.073.182-.184.292-.184h6.162c-.037.037-.037.074.036.11Z" fill="#373334"/></svg><svg fill="none" viewBox="0 0 70 20" id="LogoFooter" xmlns="http://www.w3.org/2000/svg"><path fill-rule="evenodd" clip-rule="evenodd" d="M17.397 16.061c-.196.722-.476 1.096-1.377 1.304-1.997.38-3.994.478-5.992.477-1.997 0-3.994-.097-5.99-.477-.902-.207-1.182-.582-1.378-1.304-.395-2.02-.496-4.04-.495-6.061-.001-2.02.1-4.04.495-6.061.196-.722.476-1.097 1.377-1.304 1.997-.38 3.994-.477 5.991-.477 1.998 0 3.995.097 5.992.477.902.207 1.18.583 1.377 1.304.395 2.02.496 4.04.496 6.061 0 2.02-.1 4.04-.496 6.061Zm2.66-6.07a36.273 36.273 0 0 0-.579-6.43A3.699 3.699 0 0 0 16.573.592 36.65 36.65 0 0 0 10.043 0H10.014a36.642 36.642 0 0 0-6.53.593A3.699 3.699 0 0 0 .579 3.56 36.261 36.261 0 0 0 0 9.991v.018c.001 2.143.192 4.287.579 6.43a3.7 3.7 0 0 0 2.905 2.968c2.177.395 4.353.591 6.53.593H10.043a36.636 36.636 0 0 0 6.53-.593 3.7 3.7 0 0 0 2.905-2.967c.387-2.144.578-4.288.579-6.431V9.99Z" fill="#373334"/><path fill-rule="evenodd" clip-rule="evenodd" d="m15.127 13.336-3.315-3.328L13.3 8.516c.112-.081.211-.18.29-.292l1.24-1.244c.311-.298.559-.598.559-1.029 0-.678-.552-1.229-1.233-1.229-.388 0-.704.193-.964.433l-.008.012-1.569 1.575-.005-.006L10.08 8.27 8.553 6.736l-.006.006L6.98 5.167 6.97 5.16c-.305-.289-.576-.438-.964-.438a1.23 1.23 0 0 0-1.233 1.23c0 .43.272.72.56 1.028l1.238 1.244c.08.113.178.21.29.292l1.488 1.492-3.315 3.328-.002-.007c-.171.211-.26.5-.26.792 0 .679.552 1.229 1.234 1.229.435 0 .752-.245 1.036-.564l1.186-1.192c.156-.096.29-.224.388-.377l1.464-1.47 1.464 1.47c.099.153.232.28.387.377l1.187 1.192c.274.27.601.564 1.036.564.681 0 1.234-.55 1.234-1.229 0-.293-.084-.57-.255-.782l-.007-.003Zm53.851 1.287a1.148 1.148 0 0 0-.07-.29.372.372 0 0 0-.116-.163.253.253 0 0 0-.153-.05h-5.113v-3.378h4.417a.27.27 0 0 0 .153-.046.338.338 0 0 0 .116-.152c.031-.072.054-.165.07-.283.015-.117.023-.265.023-.444 0-.173-.008-.319-.023-.44a1.077 1.077 0 0 0-.07-.286.375.375 0 0 0-.116-.158.253.253 0 0 0-.153-.05h-4.417V5.959h5.076a.236.236 0 0 0 .149-.05.397.397 0 0 0 .11-.163c.032-.074.055-.17.07-.291a3.51 3.51 0 0 0 .024-.44c0-.184-.008-.337-.023-.457a1.22 1.22 0 0 0-.07-.297.356.356 0 0 0-.111-.161.25.25 0 0 0-.149-.047h-6.784a.761.761 0 0 0-.515.18c-.14.121-.21.317-.21.588v10.436c0 .272.07.468.21.588.139.12.31.18.515.18h6.821a.252.252 0 0 0 .153-.05.369.369 0 0 0 .116-.163c.031-.073.055-.17.07-.291.016-.12.023-.27.023-.449a3.57 3.57 0 0 0-.023-.448ZM57.14 4.979a1.937 1.937 0 0 0-.429-.297 4.267 4.267 0 0 0-.771-.319 7.784 7.784 0 0 0-1.087-.251 8.468 8.468 0 0 0-1.38-.104c-.92 0-1.754.141-2.502.423a5.302 5.302 0 0 0-1.916 1.217 5.43 5.43 0 0 0-1.227 1.933c-.289.758-.433 1.613-.433 2.566 0 .923.135 1.748.406 2.476a5.034 5.034 0 0 0 1.172 1.852 5.063 5.063 0 0 0 1.871 1.16c.737.266 1.571.4 2.503.4a10.056 10.056 0 0 0 2.787-.396c.288-.084.53-.165.726-.243.195-.078.324-.184.388-.319.063-.135.095-.292.095-.472V9.818c0-.12-.016-.226-.046-.319a.67.67 0 0 0-.13-.238.56.56 0 0 0-.456-.198h-3.94a.228.228 0 0 0-.145.05.386.386 0 0 0-.109.153c-.03.068-.052.16-.067.274a3.326 3.326 0 0 0-.023.422c0 .324.03.553.09.688.06.134.144.202.253.202h2.21v2.853c-.223.12-.463.21-.722.27-.259.06-.52.09-.785.09-.54 0-1.035-.087-1.483-.261a3.072 3.072 0 0 1-1.15-.773 3.556 3.556 0 0 1-.744-1.272c-.177-.506-.266-1.092-.266-1.757 0-.605.087-1.158.26-1.658.176-.5.425-.929.75-1.286a3.334 3.334 0 0 1 1.172-.826 3.874 3.874 0 0 1 1.534-.293c.528 0 .993.054 1.393.162.4.108.744.225 1.032.35.289.127.52.243.695.351.174.108.3.162.379.162.054 0 .1-.015.14-.045a.336.336 0 0 0 .099-.157c.027-.075.048-.175.063-.301s.022-.276.022-.45c0-.3-.018-.526-.054-.678a.741.741 0 0 0-.175-.355Zm-19.333 6.448 1.686-5.05h.01l1.686 5.05h-3.382Zm3.483-6.869a.887.887 0 0 0-.134-.275.477.477 0 0 0-.257-.152 2.321 2.321 0 0 0-.503-.064c-.215-.01-.504-.014-.866-.014-.313 0-.565.005-.755.014-.19.01-.34.03-.447.064a.459.459 0 0 0-.235.147.911.911 0 0 0-.13.253l-3.676 10.542a3.02 3.02 0 0 0-.138.514c-.018.129.003.229.064.299.062.07.172.114.332.133.16.018.381.027.664.027.263 0 .477-.006.64-.018.163-.012.289-.035.378-.069a.394.394 0 0 0 .193-.138.719.719 0 0 0 .097-.216l.756-2.323h4.478l.801 2.388c.025.08.056.144.093.193a.366.366 0 0 0 .193.114c.092.028.226.046.401.055a14.68 14.68 0 0 0 1.442-.009c.172-.015.291-.055.36-.119.067-.064.092-.16.073-.29a3.185 3.185 0 0 0-.138-.523L41.29 4.557ZM30.077 8.721a1.898 1.898 0 0 1-.38.675 1.673 1.673 0 0 1-.645.44c-.264.105-.59.157-.98.157h-1.647V5.93h1.59c.255 0 .5.017.739.051.238.034.465.116.682.245.217.13.4.33.548.602.149.271.223.617.223 1.036 0 .309-.043.594-.13.856Zm1.885-3.377a3.241 3.241 0 0 0-.943-.726 4.102 4.102 0 0 0-1.09-.394 8.663 8.663 0 0 0-.924-.138 9.724 9.724 0 0 0-.812-.033H24.81c-.247 0-.447.073-.598.218-.152.144-.228.362-.228.652v10.77a.27.27 0 0 0 .056.166c.037.049.102.09.195.12.093.03.218.055.376.074.157.018.354.028.589.028.241 0 .44-.01.595-.028.154-.019.278-.043.37-.074a.42.42 0 0 0 .2-.12c.04-.05.06-.105.06-.167v-3.82h1.554c.792 0 1.48-.094 2.066-.278.584-.186 1.078-.455 1.48-.81.403-.355.71-.791.92-1.31.21-.517.315-1.113.315-1.785a4 4 0 0 0-.204-1.318 3.033 3.033 0 0 0-.594-1.027Z" fill="#373334"/></svg><svg fill="none" viewBox="0 0 16 16" id="Ok" xmlns="http://www.w3.org/2000/svg"><g clip-path="url(#ja)"><circle cx="8" cy="8" r="8" fill="currentColor"/><path d="m9.77 12.659-.46.131a4.887 4.887 0 0 1-2.889.352.823.823 0 0 1-.477-.237.877.877 0 0 1-.175-.788.8.8 0 0 1 .854-.628c.255 0 .499.041.754.04a4.422 4.422 0 0 0 1.601-.388A4.611 4.611 0 0 0 10.9 9.642c.162-.235.303-.484.422-.744.104-.236.278-.435.5-.568a.8.8 0 0 1 .877.066.772.772 0 0 1 .272 1.061 4.53 4.53 0 0 1-.726 1.334c-.315.381-.671.726-1.062 1.028l-.274.158.14.053 3.342.898a.792.792 0 0 1 .629.71.897.897 0 0 1-.42.875.726.726 0 0 1-.572.063l-2.404-.623-.266-.103c-.078-.028-.114-.007-.137.08l-.358 1.34c-.123.46-.237.917-.412 1.395a.758.758 0 0 1-.912.527.908.908 0 0 1-.51-.291.74.74 0 0 1-.158-.676l.481-1.802.397-1.63.02-.134Z" fill="#F2F2F2"/><path d="M5.527 4.005a3.443 3.443 0 0 1 3.832.248 3.456 3.456 0 0 1 .166 5.342 3.442 3.442 0 0 1-3.81.476 3.455 3.455 0 0 1-1.454-1.386 3.443 3.443 0 0 1-.331-2.602 3.433 3.433 0 0 1 1.597-2.078Zm.236 3.825a1.712 1.712 0 0 0 1.69.862 1.705 1.705 0 0 0 1.425-2.22 1.712 1.712 0 0 0-2.453-.974 1.705 1.705 0 0 0-.662 2.332Z" fill="#F2F2F2"/></g><defs><clipPath id="ja"><path fill="#fff" d="M0 0h16v16H0z"/></clipPath></defs></svg><svg fill="none" viewBox="0 0 18 18" id="Search" xmlns="http://www.w3.org/2000/svg"><path d="M13.21 11.619a7.264 7.264 0 0 0 1.415-4.306C14.625 3.28 11.345 0 7.312 0 3.28 0 0 3.28 0 7.313c0 4.032 3.28 7.312 7.312 7.312 1.611 0 3.097-.53 4.307-1.416L16.409 18 18 16.41l-4.79-4.791Zm-5.898.756A5.068 5.068 0 0 1 2.25 7.313 5.068 5.068 0 0 1 7.312 2.25a5.068 5.068 0 0 1 5.063 5.063 5.068 5.068 0 0 1-5.063 5.062Z" fill="currentColor"/></svg><svg fill="none" viewBox="0 0 19 18" id="Vk" xmlns="http://www.w3.org/2000/svg"><path d="M10.696 6.79c0 .455-.018.884-.02 1.308-.007.231.02.462.08.686a.69.69 0 0 0 .232.364.226.226 0 0 0 .202.039.855.855 0 0 0 .328-.194 4.4 4.4 0 0 0 .605-.683 12.922 12.922 0 0 0 1.542-2.801c.07-.167.139-.332.205-.503a.56.56 0 0 1 .262-.303.645.645 0 0 1 .24-.04h3.268c.09.012.178.036.262.071a.318.318 0 0 1 .229.317c0 .18-.036.358-.105.523-.176.425-.398.83-.662 1.207-.492.749-1.051 1.448-1.577 2.163-.176.238-.341.484-.499.733a.719.719 0 0 0-.12.468c.022.16.096.31.21.424.191.204.386.406.59.597a16.284 16.284 0 0 1 1.543 1.57c.223.265.415.554.573.862a.952.952 0 0 1 .078.262.475.475 0 0 1-.228.523c-.176.11-.378.172-.586.176-.775.02-1.55.015-2.322.06a1.946 1.946 0 0 1-1.361-.466 6.318 6.318 0 0 1-.788-.77c-.263-.285-.507-.573-.789-.845a1.787 1.787 0 0 0-.401-.296.466.466 0 0 0-.597.094c-.13.156-.22.341-.265.54a3.818 3.818 0 0 0-.14.926 2.33 2.33 0 0 1-.023.233.536.536 0 0 1-.368.432c-.127.053-.264.08-.402.081h-1.05a5.147 5.147 0 0 1-1.79-.343 6.874 6.874 0 0 1-2.69-1.832 16.757 16.757 0 0 1-1.944-2.597A36.726 36.726 0 0 1 .054 5.292a.64.64 0 0 1-.05-.325.227.227 0 0 1 .134-.194c.13-.065.272-.099.417-.099h2.612a.803.803 0 0 1 .699.524c.225.594.497 1.17.811 1.722.341.615.725 1.205 1.148 1.767.144.208.322.39.526.54a.424.424 0 0 0 .473.046.44.44 0 0 0 .181-.209c.095-.218.154-.451.173-.688.058-.554.07-1.11.035-1.665a5.904 5.904 0 0 0-.103-.987c-.016-.081-.045-.16-.06-.241a.536.536 0 0 0-.284-.35 1.34 1.34 0 0 0-.596-.197c-.06 0-.082-.032-.056-.084a.575.575 0 0 1 .09-.144c.192-.208.451-.343.733-.38.407-.07.82-.1 1.234-.091.46 0 .923 0 1.385.029.2.012.4.045.594.096a.7.7 0 0 1 .562.66c.022.253.03.506.024.76-.006.342-.027.688-.04 1.007Z" fill="currentColor"/></svg><svg fill="none" viewBox="0 0 15 16" id="YouTube" xmlns="http://www.w3.org/2000/svg"><path d="M14.85 4.8s-.146-1.103-.597-1.587c-.571-.638-1.21-.641-1.503-.679-2.098-.162-5.247-.162-5.247-.162h-.006s-3.15 0-5.247.162c-.293.038-.932.041-1.503.679C.296 3.697.152 4.8.152 4.8S0 6.097 0 7.39v1.213c0 1.294.15 2.59.15 2.59s.146 1.104.594 1.588c.571.638 1.321.616 1.655.685 1.202.122 5.101.159 5.101.159s3.152-.006 5.25-.166c.293-.037.932-.04 1.503-.678.451-.484.598-1.587.598-1.587S15 9.9 15 8.604V7.39c0-1.294-.15-2.591-.15-2.591Zm-8.9 5.275V5.578l4.052 2.256-4.052 2.241Z" fill="currentColor"/></svg><svg fill="none" viewBox="0 0 13 12" id="arrow-calendar" xmlns="http://www.w3.org/2000/svg"><path fill-rule="evenodd" clip-rule="evenodd" d="M6.92 1.137a.667.667 0 0 1 .943 0l4.666 4.667a.667.667 0 0 1 0 .943l-4.666 4.666a.666.666 0 0 1-.943-.942l3.529-3.53H1.39a.667.667 0 0 1 0-1.333h9.058L6.919 2.08a.667.667 0 0 1 0-.943Z" fill="currentColor"/></svg><svg fill="none" viewBox="0 0 20 20" id="calendar" xmlns="http://www.w3.org/2000/svg"><g clip-path="url(#da)" fill="currentColor"><path d="M0 19.633h20V6.229H0v13.404Zm14.828-11.45h2.07v2.07h-2.07v-2.07Zm0 3.518h2.07v2.07h-2.07V11.7Zm0 3.518h2.07v2.069h-2.07v-2.07ZM10.92 8.184h2.069v2.069h-2.07v-2.07Zm0 3.517h2.069v2.07h-2.07V11.7Zm0 3.518h2.069v2.069h-2.07v-2.07ZM7.01 8.184h2.07v2.069H7.01v-2.07Zm0 3.517h2.07v2.07H7.01V11.7Zm0 3.518h2.07v2.069H7.01v-2.07ZM3.103 8.184h2.069v2.069h-2.07v-2.07Zm0 3.517h2.069v2.07h-2.07V11.7Zm2.069 3.518v2.069h-2.07v-2.07h2.07ZM20 1.54h-3.518v2.345H15.31V1.539H4.69v2.346H3.518V1.539H0v3.518h20V1.54ZM4.69.367H3.518v1.172H4.69V.367ZM16.482.367H15.31v1.172h1.172V.367Z"/></g><defs><clipPath id="da"><path fill="#fff" d="M0 0h20v20H0z"/></clipPath></defs></svg><svg fill="none" viewBox="0 0 16 17" id="staple" xmlns="http://www.w3.org/2000/svg"><path d="M11.607 16.558c.784.21 1.59.148 2.27-.174 1.405-.664 1.828-2.244.944-3.521L7.812 2.733c-.564-.816-1.446-1.418-2.48-1.695C4.298.76 3.234.84 2.336 1.266 1.438 1.691.814 2.408.58 3.286c-.235.877-.053 1.81.512 2.626l5.518 7.973c.165.24.513.333.776.208a.432.432 0 0 0 .176-.658L2.043 5.462c-.405-.585-.535-1.254-.366-1.882.168-.629.616-1.143 1.259-1.447.643-.305 1.406-.363 2.147-.164.74.198 1.372.63 1.777 1.215l7.009 10.13c.553.8.288 1.788-.59 2.204-.853.402-2.062.078-2.599-.696L5.974 8.02a.732.732 0 0 1-.118-.603.722.722 0 0 1 .404-.464 1.04 1.04 0 0 1 1.257.337l3.214 4.645c.165.24.513.333.776.208a.432.432 0 0 0 .176-.658L8.47 6.839c-.598-.864-1.858-1.201-2.809-.752-.46.218-.78.586-.901 1.036-.12.443-.024.935.262 1.347l4.707 6.802c.428.619 1.095 1.076 1.88 1.286Z" fill="currentColor"/></svg></svg>