<svg width="13" height="12" viewBox="0 0 13 12" fill="none" xmlns="http://www.w3.org/2000/svg">
<path fill-rule="evenodd" clip-rule="evenodd" d="M6.91994 1.13691C7.04496 1.01193 7.2145 0.941711 7.39128 0.941711C7.56805 0.941711 7.73759 1.01193 7.86261 1.13691L12.5293 5.80381C12.6543 5.92883 12.7245 6.09838 12.7245 6.27517C12.7245 6.45195 12.6543 6.6215 12.5293 6.74652L7.86261 11.4134C7.73687 11.5349 7.56847 11.6021 7.39368 11.6005C7.21888 11.599 7.05167 11.5289 6.92806 11.4053C6.80446 11.2817 6.73435 11.1145 6.73283 10.9397C6.73131 10.7649 6.7985 10.5964 6.91994 10.4707L10.4486 6.94187H1.39128C1.21447 6.94187 1.0449 6.87162 0.919871 6.74659C0.794847 6.62156 0.724609 6.45199 0.724609 6.27517C0.724609 6.09835 0.794847 5.92877 0.919871 5.80374C1.0449 5.67871 1.21447 5.60847 1.39128 5.60847H10.4486L6.91994 2.07963C6.79496 1.9546 6.72475 1.78505 6.72475 1.60827C6.72475 1.43148 6.79496 1.26194 6.91994 1.13691Z" fill="currentColor"/>
</svg>
